<?xml version="1.0" encoding="utf-8"?>
<!-- Generator: Adobe Illustrator 26.2.1, SVG Export Plug-In . SVG Version: 6.00 Build 0)  -->
<svg version="1.1" id="Warstwa_1" xmlns="http://www.w3.org/2000/svg" xmlns:xlink="http://www.w3.org/1999/xlink" x="0px" y="0px"
	 viewBox="0 0 725 253" style="enable-background:new 0 0 725 253;" xml:space="preserve">
<style type="text/css">
	.st0{fill:#FFFFFF;stroke:#FFFFFF;stroke-width:0.25;stroke-miterlimit:10;}
</style>
<path class="st0" d="M653.12,213.19c-38-4.67-66.66,10.07-76.16,15.49c-1.99-3.16-19.25-29.66-51.63-32.27
	c-21.58-1.73-37.51,8.15-42.6,11.62c0.94-7.15,6.04-51.44-25.82-89.07C421,76.54,368.61,78.61,362.68,78.94
	c-5.92-0.34-58.31-2.4-94.23,40.02c-31.86,37.63-26.76,81.92-25.82,89.07c-5.09-3.47-21-13.35-42.6-11.62
	c-32.39,2.61-49.65,29.11-51.63,32.27c-9.49-5.42-38.16-20.16-76.16-15.49C27,218.75,10.38,245.41,4,253h717.37
	C714.99,245.41,698.36,218.75,653.12,213.19z"/>
</svg>
