<svg id="Warstwa_1" data-name="Warstwa 1" xmlns="http://www.w3.org/2000/svg" viewBox="0 0 762.02 729.54"><defs><style>.cls-1,.cls-17,.cls-2{fill:#f8c9df;}.cls-1,.cls-10,.cls-13,.cls-14,.cls-17,.cls-18,.cls-3,.cls-4,.cls-5,.cls-7,.cls-8{stroke:#b2b2b2;}.cls-1,.cls-10,.cls-11,.cls-12,.cls-13,.cls-14,.cls-15,.cls-16,.cls-17,.cls-18,.cls-3,.cls-4,.cls-5,.cls-6,.cls-7,.cls-8,.cls-9{stroke-miterlimit:10;}.cls-3{fill:#fef1e8;}.cls-4{fill:#e4f3f7;}.cls-5{fill:#ededed;}.cls-12,.cls-6,.cls-7{fill:none;}.cls-6,.cls-9{stroke:#706f6f;}.cls-8{fill:#fcf29c;}.cls-9{fill:#3c3c3b;}.cls-10{fill:#f6f6f6;}.cls-11{fill:#f8f7d9;stroke:#ffd332;}.cls-12{stroke:#9d9d9c;}.cls-13{fill:#ecdf82;}.cls-14{fill:#fff;}.cls-15{fill:#f6b0a6;}.cls-15,.cls-16{stroke:#dadada;}.cls-16{fill:#9dd8f7;}.cls-17,.cls-18{stroke-width:0.75px;}.cls-18{fill:#addad6;}</style></defs><path class="cls-1" d="M285.78,725.08c-.92.22-2.22-2-3.44-4a43.46,43.46,0,0,1-2.33-4.61c.16-.11.31-.23.46-.32a13.47,13.47,0,0,1,5.27-2.12,21.76,21.76,0,0,1,.94,4.66C286.7,719.06,287.15,724.71,285.78,725.08Z"/><path class="cls-2" d="M284.69,711a17.15,17.15,0,0,0-3.88,1,8,8,0,0,0-2.15,1c-.21-.56-.39-1.09-.58-1.63a8.61,8.61,0,0,1,2-.89,14.6,14.6,0,0,1,4.14-1C284.4,710,284.56,710.48,284.69,711Z"/><path class="cls-3" d="M284.23,709.43a14.6,14.6,0,0,0-4.14,1,8.61,8.61,0,0,0-2,.89c-.17-.49-.32-1-.49-1.47-.73-2.14-1.84-5.36-3.29-9.37-.72-1.63-1.33-3.13-1.85-4.62.88-4.07,1.89-9.15,3-15.53.49,1.64.9,3,1.22,4,1.05,3.44,1.3,4.05,2.83,9.09C281.48,699.92,283.09,705.39,284.23,709.43Z"/><path class="cls-3" d="M285.74,714a13.47,13.47,0,0,0-5.27,2.12c-.15.09-.3.21-.46.32-.51-1.2-.95-2.35-1.35-3.47a8,8,0,0,1,2.15-1,17.15,17.15,0,0,1,3.88-1c.06.23.14.46.19.69A19.45,19.45,0,0,1,285.74,714Z"/><path class="cls-3" d="M267.39,714.23c-.48,1.33-1,2.69-1.49,4a8.39,8.39,0,0,0-1.36-.63,13.64,13.64,0,0,0-4.06-.82c.26-1.45.53-2.52.66-3.1.06-.28.14-.55.21-.84a2,2,0,0,1,1.07-.3A6.81,6.81,0,0,1,267.39,714.23Z"/><path class="cls-1" d="M265.9,718.22c0,.09-.06.17-.1.27s-.09.26-.15.38a72.65,72.65,0,0,0-3,8.34,2.25,2.25,0,0,1-.51,1.25,1.63,1.63,0,0,1-1.46.55c-1-.23-1.22-1.8-1.31-2.37a5,5,0,0,1,0-1.66c0-1,.17-2.44.42-4.24.15-1.24.34-2.35.51-3.32a6.2,6.2,0,0,1,.14-.65,13.64,13.64,0,0,1,4.06.82A8.39,8.39,0,0,1,265.9,718.22Z"/><path class="cls-4" d="M263.19,399a.42.42,0,0,1,0,.11s0,.06,0,.27c0,0,0,.19-.06.84-.44,5-.51,5.29-.51,5.31-.16,1.18-.29,2.37-.44,3.55,0,.31-.06.61-.1.9-.3,2.88-.65,5.37-.93,7.33-.1.56-.18,1.05-.25,1.51-.15.94-.42,2.47-1,5.37,0,.34-.11.71-.19,1.09-.49,2.73-.88,4.85-1.14,6.24-.12.65-.21,1.13-.27,1.47-.25,1.38-.5,2.77-.73,4.17,0,.13,0,.24-.05.38s-.06.3-.08.46-.1.59-.15.89c-.4,2.45-.81,4.91-1.19,7.36-.46,2.77-.91,5.52-1.35,8.28-.12.69-.23,1.4-.35,2.09a21.18,21.18,0,0,1-5,1.18c-8.75.95-18.52-3.17-24.6-10.27-8.46-9.88-6.83-22-6.55-24-.95.17-10.65,1.81-19.63-3.4.31-.08.61-.17.92-.27,4.92-1.45,10.54-3.42,19.57-6.41,10.31-3.44,20.55-6.55,30.86-9.9C254.9,402,260.42,399.93,263.19,399Z"/><path class="cls-4" d="M270.62,422.46c0,.44,0,1,0,1.74a72.09,72.09,0,0,1-.59,7.33c-.06.5-.14,1-.21,1.53v0a57,57,0,0,1-1.28,5.8,36.57,36.57,0,0,1-2.87,7.36,22.62,22.62,0,0,1-7.18,8.28,16.72,16.72,0,0,1-3.11,1.72c-.31.14-.61.25-.94.37.12-.69.23-1.4.35-2.09.44-2.76.89-5.51,1.35-8.28.38-2.45.79-4.91,1.19-7.36,0-.3.09-.59.15-.89s.06-.31.08-.46,0-.25.05-.38c.23-1.4.48-2.79.73-4.17.06-.34.15-.82.27-1.47.26-1.39.65-3.51,1.14-6.24.08-.38.14-.75.19-1.09.54-2.9.81-4.43,1-5.37.07-.46.15-.95.25-1.51.28-2,.63-4.45.93-7.33,0-.29.06-.59.1-.9.15-1.18.28-2.37.44-3.55,0,0,.07-.29.51-5.31.06-.65.06-.82.06-.84,0-.21,0-.27,0-.27a.42.42,0,0,0,0-.11c-2.77.92-8.29,3-13.22,4.56-10.31,3.35-20.55,6.46-30.86,9.9-9,3-14.65,5-19.57,6.41-.31.1-.61.19-.92.27a25.64,25.64,0,0,1-5.44-4.24,23.48,23.48,0,0,1-2.58-3.09h0a28.47,28.47,0,0,1-2.86-27.45c-2.2.27-20.88,2.28-32.72-10.9s-22.59-36.8-13.08-45c16.18-14,73.45,11.71,100.34,38.48,5.19,5.17,12.24,12.32,18,21.27a74.65,74.65,0,0,1,5.38,9.92l.52,1.2v0a55.92,55.92,0,0,1,3.11,9.66c.19.8.36,1.6.52,2.43h0c.28,1.61.49,3.23.63,4.89A45.91,45.91,0,0,1,270.62,422.46Z"/><path class="cls-4" d="M313.17,449.2c-5.91,5.86-14.4,9.26-22.21,8.67a21.44,21.44,0,0,1-4.26-.73c-.18-.9-.33-1.77-.48-2.6-.36-2-.69-3.83-1-5.38l-.64-2.9c-.17-.83-.32-1.65-.49-2.47-.12-.59-.23-1.2-.33-1.81-.21-1-.38-2-.55-3.08-.38-2.36-.73-4.83-1-7.37,0-.13,0-.25,0-.38-.11-1-.23-2-.31-3,0-.07,0-.15,0-.23-.07-.84-.15-1.66-.21-2.52v0c0-.38-.07-.78-.09-1.16s-.06-.86-.08-1.3c0-.15,0-.31,0-.46-.07-1.18-.13-2.39-.17-3.61,0-.49,0-1,0-1.51-.14-2.88-.33-5.59-.48-7.33-.1-1.2-.15-1.95-.15-1.95,0-3.26-.29-5.94-.25-8.17,5.17,6.57,8.3,14.72,9.16,16.14.16.23.73,1.18,1.61,2.42,1.14,1.66,2.23,2.83,12.33,17,.92,1.29,1.91,2.69,3,4.22s2.22,3.15,3.17,4.48l0,0C311,446.1,312.13,447.75,313.17,449.2Z"/><path class="cls-4" d="M384.53,374.47c-11.84,13.18-30.52,11.17-32.71,10.9,4.41,10.62,2.23,22.69-5.46,30.54-10,10.2-23.93,7.85-25.08,7.64.27,1.76,1.61,11.86-4.37,21.06a25.24,25.24,0,0,1-2.18,2.93c-.5.57-1,1.14-1.56,1.66-1-1.45-2.2-3.1-3.56-5l0,0c-.95-1.33-2-2.82-3.17-4.48s-2.06-2.93-3-4.22c-10.1-14.21-11.19-15.38-12.33-17-.88-1.24-1.45-2.19-1.61-2.42-.86-1.42-4-9.57-9.16-16.14,0,2.23.25,4.91.25,8.17,0,0,.05.75.15,1.95.15,1.74.34,4.45.48,7.33,0,.5,0,1,0,1.51,0,1.22.1,2.43.17,3.61,0,.15,0,.31,0,.46,0,.44,0,.86.08,1.3s.06.78.09,1.16v0c.06.86.14,1.68.21,2.52,0,.08,0,.16,0,.23.08,1,.2,2,.31,3,0,.13,0,.25,0,.38.28,2.54.63,5,1,7.37.17,1.05.34,2.07.55,3.08.1.61.21,1.22.33,1.81.17.82.32,1.64.49,2.47l.64,2.9c.28,1.55.61,3.36,1,5.38.15.83.3,1.7.48,2.6a19.17,19.17,0,0,1-2.51-.88,16.72,16.72,0,0,1-3.11-1.72,22.38,22.38,0,0,1-7.16-8.28,36,36,0,0,1-2.86-7.36,46.32,46.32,0,0,1-1.28-5.8v0c-.08-.52-.16-1-.23-1.53a69.29,69.29,0,0,1-.59-7.33c0-.73,0-1.3,0-1.74a45.91,45.91,0,0,1,.21-5.14,43.88,43.88,0,0,1,.65-4.89h0c.13-.83.3-1.63.49-2.43a53,53,0,0,1,2.64-8.46,20.92,20.92,0,0,1,.82-2,71.7,71.7,0,0,1,6.17-11.27,116.33,116.33,0,0,1,13.94-16.86q1.8-1.87,3.44-3.48a120,120,0,0,1,10-8.86c3.52-2.79,7.28-5.52,11.21-8.14,26.61-17.7,61-30.44,75.91-23.49a12.69,12.69,0,0,1,3.19,2C407.14,337.67,396.24,361.43,384.53,374.47Z"/><path class="cls-4" d="M254.17,458l-.63,3.86c-.42,2.61-.84,5.23-1.28,7.85-.38,2.44-.78,4.89-1.18,7.33-.34,2.14-.71,4.28-1.05,6.42a139.92,139.92,0,0,0-27.69,6.13c-.5-5.29,0-12.72,4.72-19.35,5.32-7.48,14.15-11.38,22.26-12.14A27.3,27.3,0,0,1,254.17,458Z"/><path class="cls-5" d="M268.92,471.29a27.22,27.22,0,0,1-.67,5.77,53,53,0,0,1-2.69,8.75l-.56,1.37a126.34,126.34,0,0,1-14.21,24.62c-6.76,9.13-19.15,22.49-30.67,28.53-.93.48-1.85.92-2.77,1.3-4.81,2-9.39,2.58-13.19.7-10.81-5.32-16.46-30.55-4.24-41.55,8.59-7.72,21.87-4.7,23.74-4.24a31.87,31.87,0,0,1-1.32-6.93A139.92,139.92,0,0,1,250,483.48c.34-2.14.71-4.28,1.05-6.42.4-2.44.8-4.89,1.18-7.33.44-2.62.86-5.24,1.28-7.85l.63-3.86c4.53.27,8.52,1.59,11.08,3.86a7.19,7.19,0,0,1,.8.76,11.43,11.43,0,0,1,2.79,7.09A13.36,13.36,0,0,1,268.92,471.29Z"/><path class="cls-4" d="M315.59,488.63a158,158,0,0,0-23.78-8.09c-.26.13-.55.24-.84.36-.22-1.28-.45-2.56-.68-3.84-.46-2.48-.9-4.95-1.34-7.33-.48-2.73-.95-5.37-1.39-7.85-.25-1.34-.48-2.64-.71-3.88a32,32,0,0,1,4.18.46c7.39,1.26,15,5.08,19.77,11.8A28.24,28.24,0,0,1,315.59,488.63Z"/><path class="cls-5" d="M333.68,542.33c-13.45,6.61-36.44-16.78-46.64-30.53a126.53,126.53,0,0,1-14.32-24.9c-.17-.43-.35-.85-.52-1.27a52.6,52.6,0,0,1-2.61-8.57,27.22,27.22,0,0,1-.67-5.77c0-.53,0-1.05.07-1.56a11.43,11.43,0,0,1,2.79-7.09,8.18,8.18,0,0,1,.8-.76c3.15-2.79,8.46-4.15,14.27-3.88.23,1.24.46,2.54.71,3.88.44,2.48.91,5.12,1.39,7.85.44,2.38.88,4.85,1.34,7.33.23,1.28.46,2.56.68,3.84.29-.12.58-.23.84-.36a158,158,0,0,1,23.78,8.09,34.92,34.92,0,0,1-1.41,7.91c1.51-.36,10.52-2.43,18.45.92a0,0,0,0,1,0,0,18.66,18.66,0,0,1,5.28,3.31,2.6,2.6,0,0,1,.28.29s0,0,.06,0C350,512.28,344.39,537.06,333.68,542.33Z"/><path class="cls-6" d="M538.72,321.07c2.07.09,4.07.15,6,.17A51.74,51.74,0,0,1,538.72,321.07Z"/><path class="cls-3" d="M402.43,208.55a23.84,23.84,0,0,0,.57-7.67c-.65-6.69-1.41-12.13-2.45-15.45v0l-.11.13a1.4,1.4,0,0,0,.09-.17s0,0,0-.06l-.06,0h0l-.08.08a0,0,0,0,0,0,0c-60.55,48.16-65,47.19-65,47.19-41.9,23.09-90.73,23.13-118,19.5l-2.8.21c-11.46,31.64-8,60.46-3.25,70.16,4.87,10,14.8,17.51,14.8,17.51,10.12,7.18,12.36,7.79,21.87,12.91s14.2,8,20.09,10.66c1.51.67,2.94,1.24,2.94,1.24s2.88,1.17,6.74,2.44c.36.14.71.25.71.25l2.4.75c4.45,1.35,8.79,2.4,13,3.23,40.08,7.84,66.71-6.88,66.71-6.88,18.1-10.29,28.37-25.86,33.87-37.09.86-1.75,1.61-3.42,2.26-4.92l-.14-.19v0a99.81,99.81,0,0,1-5.9-9.57,98,98,0,0,1-6.34-14.4A103.8,103.8,0,0,1,379,262.75C379.38,244,398.61,225.68,402.43,208.55Zm-151,79.81c-2.77,5.46-8,8.38-11.65,6.51s-4.41-7.79-1.64-13.25,8-8.38,11.65-6.51S254.23,282.9,251.46,288.36Zm77.77,28.78c2.77-5.46,8-8.38,11.66-6.53s4.42,7.81,1.65,13.25-8,8.39-11.67,6.53S326.48,322.6,329.23,317.14Z"/><path class="cls-7" d="M118.26,418.23a2.22,2.22,0,0,0-1.14-.08,2.86,2.86,0,0,0-1.82,1.37L94.41,347l.59-.49a3,3,0,0,1,2.43-.67Z"/><path class="cls-2" d="M333.05,358.29c-1.67-3.15-5.66-5.88-10.66-7a21.91,21.91,0,0,0-3.88-.42,13.54,13.54,0,0,0-8.86,2.68,6.58,6.58,0,0,0-2.27,3.61,5.76,5.76,0,0,0-.08,1.85c.46,4.18,5.14,8.21,11.5,9.53a4.46,4.46,0,0,0,.51.07,16.77,16.77,0,0,0,9.59-.76c2.58-1,4.41-2.86,4.89-5.17A6.53,6.53,0,0,0,333.05,358.29ZM236.17,315.4c-4.21-3.15-9-4.29-12.49-3.36a6.59,6.59,0,0,0-3.59,2.31c-2.91,3.9-.44,10.68,5.51,15.15a3.83,3.83,0,0,0,.42.28,16.89,16.89,0,0,0,9,3.38c2.79.14,5.21-.72,6.63-2.61a6.53,6.53,0,0,0,1.2-4.34C242.7,322.66,240.25,318.5,236.17,315.4Z"/><path class="cls-6" d="M342.54,323.86c-2.77,5.46-8,8.38-11.67,6.53s-4.39-7.79-1.64-13.26,8-8.38,11.67-6.53S345.31,318.41,342.54,323.86Z"/><path class="cls-6" d="M400.52,185.29l-.06-.06,0,0A.18.18,0,0,1,400.52,185.29Z"/><path class="cls-6" d="M400.56,185.38l-.12.14c0-.06.06-.12.1-.18S400.54,185.36,400.56,185.38Z"/><path class="cls-6" d="M400.46,185.16s0,0,0,0"/><path class="cls-6" d="M400.46,185.16s0,0,0,0"/><path class="cls-6" d="M400.44,185.2a.07.07,0,0,1,.06,0"/><path class="cls-6" d="M400.57,185c0,.06-.07.08-.09.13v0h0a0,0,0,0,1,0,0v0a.06.06,0,0,0,0,0"/><path class="cls-6" d="M386.67,199.3s0,0,0,0"/><path class="cls-8" d="M400.42,185.25l-.07.08h0c-60.56,48.17-65,47.19-65,47.19-41.9,23.09-90.73,23.13-118,19.5a162.77,162.77,0,0,0,25.15-4.73,48.07,48.07,0,0,0,8.82-3c7-3.32,12.49-9.13,18.22-14.36,2.1-1.91,4.24-3.75,6.45-5.46l.08-.06C301.79,204.25,334.75,196,367.21,190c5-.93,9-1.7,14.23-2.54,5.48-.87,11.94-1.3,17.57-1.79l.9-.08-.25-.13Z"/><path class="cls-8" d="M400.5,185.19l0,0,0,0-.76.23a110.25,110.25,0,0,0-52.06-12.64c-6.46,0-12.89.68-19.33,1.31-18.41,1.84-37.77,4.07-52.76,14.92-15.82,11.46-24.29,30.82-39.74,42.78-12.05,9.32-26.36,11.7-39.61,17.72l-.56.19h0l-.5.15c.29-9.13,15.37-19.9,20.32-34.37,13-38,38.75-92.53,95-90.94,54.77,1.56,87.77,56.52,90.12,60.55v0Z"/><path class="cls-6" d="M400.52,185.29s0,0,0,0,0,0,0,0"/><path class="cls-8" d="M400.46,185.23l0,0-.76.23a110.25,110.25,0,0,0-52.06-12.64c-6.46,0-12.89.68-19.33,1.31-18.41,1.84-37.77,4.07-52.76,14.92-15.82,11.46-24.29,30.82-39.74,42.78-12.05,9.32-26.36,11.7-39.61,17.72l-.5.23s0,0-.06,0h0c-1.42-.84,10.59-8.19,25.72-22.46,29.79-28.09,22.95-45.49,43.58-61.09,31.45-23.81,80.51-8.4,91-5.12a134.72,134.72,0,0,1,44.57,24.12Z"/><path class="cls-6" d="M400.61,185.31a0,0,0,0,0,0,0,.05.05,0,0,0,0,0v-.07Z"/><path class="cls-6" d="M400.63,185.15l-.15,0h0"/><path class="cls-9" d="M342.54,323.86c-2.77,5.46-8,8.38-11.67,6.53s-4.39-7.79-1.64-13.26,8-8.38,11.67-6.53S345.31,318.41,342.54,323.86Z"/><path class="cls-9" d="M251.46,288.35c-2.76,5.47-8,8.39-11.65,6.52s-4.41-7.79-1.64-13.26,8-8.38,11.65-6.51S254.23,282.89,251.46,288.35Z"/><path class="cls-6" d="M280.21,355.05l-.37-.15"/><path class="cls-10" d="M291.18,482A60.62,60.62,0,0,1,273,486.86l-.32,0a64.25,64.25,0,0,1-7.72.28,62.89,62.89,0,0,1-15.2-2.29c.08-.48.15-.94.23-1.41.34-2.14.71-4.28,1.05-6.42.4-2.44.8-4.89,1.18-7.33.44-2.62.86-5.24,1.28-7.85l.63-3.86c.08-.46.16-.94.23-1.39.12-.69.23-1.4.35-2.09.44-2.76.89-5.51,1.35-8.28.38-2.45.79-4.91,1.19-7.36,0-.3.09-.59.15-.89s.06-.31.08-.46,0-.25.05-.38c.23-1.4.48-2.79.73-4.17.06-.34.15-.82.27-1.47.26-1.39.65-3.51,1.14-6.24.08-.38.14-.75.19-1.09.54-2.9.81-4.43,1-5.37.07-.46.15-.95.25-1.51.28-2,.63-4.45.93-7.33,0-.29.06-.59.1-.9.15-1.18.28-2.37.44-3.55,0,0,.07-.29.51-5.31.06-.65.06-.82.06-.84,0-.21,0-.27,0-.27a.42.42,0,0,0,0-.11v0l2.44.12,8.1.42,6.61.32v0c0,2.23.25,4.91.25,8.17,0,0,.05.75.15,1.95.15,1.74.34,4.45.48,7.33,0,.5,0,1,0,1.51,0,1.22.1,2.43.17,3.61,0,.15,0,.31,0,.46,0,.44,0,.86.08,1.3s.06.78.09,1.16v0c.06.86.14,1.68.21,2.52,0,.08,0,.16,0,.23.08,1,.2,2,.31,3,0,.13,0,.25,0,.38.28,2.54.63,5,1,7.37.17,1.05.34,2.07.55,3.08.1.61.21,1.22.33,1.81.17.82.32,1.64.49,2.47l.64,2.9c.28,1.55.61,3.36,1,5.38.15.83.3,1.7.48,2.6a8.6,8.6,0,0,0,.15.86c.23,1.24.46,2.54.71,3.88.44,2.48.91,5.12,1.39,7.85.44,2.38.88,4.85,1.34,7.33.23,1.28.46,2.56.68,3.84C291.05,481.28,291.11,481.66,291.18,482Z"/><path class="cls-3" d="M394,508.91c1,1.4,2,2.79,3,4.19-3.18-2.2-7.44-5-12.54-8.18l-.84-.51c-4.18-2.58-9.23-5.62-15.47-8.83-14.3-7.33-14.29-6.72-22.48-13.13-3.28-2.56-9.24-6.19-12.13-9.15-4.9-5-8.55-8.16-12.73-13.73-2.68-3.54-4.64-6.25-7.58-10.37-1-1.45-2.2-3.1-3.56-5l0,0c-.95-1.33-2-2.82-3.17-4.48s-2.06-2.93-3-4.22c-10.1-14.21-11.19-15.38-12.33-17-.88-1.24-1.45-2.19-1.61-2.42-.86-1.42-4-9.57-9.16-16.14a17,17,0,0,1-7.43,1.66,20.92,20.92,0,0,1-6.76-1.2v0a20,20,0,0,1-3-1.3c-2.77.92-8.29,3-13.22,4.56-10.31,3.35-20.55,6.46-30.86,9.9-9,3-14.65,5-19.57,6.41-.31.1-.61.19-.92.27a95.22,95.22,0,0,1-9.41,2.27,121.7,121.7,0,0,1-26.49,2.08l-41.79,3.06v0l0-.06v0a6.5,6.5,0,0,0,.67-4.66,5.49,5.49,0,0,0-.17-.7,5.29,5.29,0,0,0-.29-.82,1.09,1.09,0,0,0-.05-.14,4.44,4.44,0,0,0-.37-.72,3.26,3.26,0,0,0-.24-.4,8,8,0,0,0-.56-.69,4.53,4.53,0,0,0-.84-.71v0l0,0,42.23-2.09a105.84,105.84,0,0,0,25.55-2.82c.74-.17,1.49-.37,2.23-.56.35-.09.86-.17,1.53-.28h0c3.61-.58,11.38-1.44,17.51-3.44,12.64-4.16,8.9-5.52,22.84-10.24,7.37-2.5,14.48-5.84,22-7.86,2.43-.67,5-1.28,7.3-2.09,3.76-1.31,7-3.13,8.59-6.43a23.54,23.54,0,0,0,1.45-5.14,62,62,0,0,0,.73-12.89s2.88,1.17,6.74,2.44c.36.14.71.25.71.25-.62,2.62-1.61,9.21-1,13.41a21.88,21.88,0,0,0,2.29,7.26c0,.05.06.11.1.17.51.91,1.28,2,4.45,5.67,2.16,2.48,3.23,3.74,4.77,5.37,5.77,6.11,15.26,23.49,21.54,34.58a1.42,1.42,0,0,1,.14.23c2.38,4.24,4.41,7.68,6.11,10.5.8,1.36,1.55,2.58,2.23,3.67,4.28,6.86,6,8.73,7.37,10.1a170,170,0,0,0,14.73,12.53c2.19,1.76,3.78,3,14.51,10.94s16.14,12,17.71,12.93c2,1.19,3.85,2.24,5.65,3.17A95.42,95.42,0,0,0,395,504.54a93,93,0,0,0,11.53,2.77Z"/><path class="cls-3" d="M287.44,590.69a10,10,0,0,1-1.2,4.1c0,.37-.06.71-.08,1.09-.27,3.94-.19,9-1.51,20.34-2.31,19.94-4.54,35.16-5.19,39.59-1.47,9.82-2.79,17.89-4,24.54-1.13,6.38-2.14,11.46-3,15.53-1.74,7.9-3,12-3.69,14.28-.26.86-.57,1.78-.89,2.71a6.86,6.86,0,0,0-4.95-1.68,3.48,3.48,0,0,0-1.26.23c1-4.54,2-9.11,3.09-13.65,1.57-6.69,2.37-10,3.25-14.42.12-.56.23-1.17.36-1.8.79-3.89,1.84-9.28,2.7-15.85.05-.36.09-.74.13-1.12.4-3,.82-7,1.47-15.45.84-11.2,1.3-19.88,1.53-24.64.19-4,1.07-13.21,1.77-21.66.18-1.81.31-3.57.44-5.25.18-2,.31-3.89.4-5.54,0-.49.06-1,.08-1.41.54.52,1.17,1.13,1.89,1.76.4.34.77.65,1.13.91a6.81,6.81,0,0,0,3.8,1.72,3.47,3.47,0,0,0,1.22-.19c1-.36,1.59-.55,2.14-2.52q.09-.28.15-.57C287.31,591.38,287.36,591,287.44,590.69Z"/><path class="cls-7" d="M120.94,427.55h-.08s.06,0,.06-.08Z"/><path class="cls-7" d="M127.74,455.1l-1,.29a1.11,1.11,0,0,1-1.37-.76l-7.47-25.94a2.46,2.46,0,0,0,1.2.1,2.64,2.64,0,0,0,1.72-1.24s.06,0,.06-.08l0,.08,7.54,26.2A1.09,1.09,0,0,1,127.74,455.1Z"/><path class="cls-6" d="M410,193.63l-8.55-7.87c.42.23.82.46,1.22.71l1.18.8,1.15.9c.32.27.65.54.95.82l.31.29c.3.29.61.59.9.9s.55.57.82.87c.11.14.24.27.34.42a11.69,11.69,0,0,1,.78,1Q409.54,193,410,193.63Z"/><path class="cls-6" d="M400.54,185.34l0,0a.59.59,0,0,1,.07-.16"/><path class="cls-8" d="M418,332.89a29.62,29.62,0,0,1-21.48-10.58v0a99.77,99.77,0,0,1-5.91-9.57,98.62,98.62,0,0,1-6.34-14.4A103.73,103.73,0,0,1,379,262.75c.42-18.8,19.65-37.07,23.47-54.2a23.92,23.92,0,0,0,.57-7.68c-.65-6.68-1.41-12.13-2.44-15.45v0a.05.05,0,0,1,0,0c.27.13.54.26.81.42h0c.42.23.82.46,1.22.71l1.18.8,1.15.9c.32.27.65.54.95.82l.31.29c.3.29.61.59.9.9s.55.57.82.87c.11.14.24.27.34.42a11.69,11.69,0,0,1,.78,1q.46.57.9,1.2h0c.31.44.61.9.9,1.36s.4.65.59,1c.4.69.78,1.4,1.11,2.1.17.37.34.73.49,1.09.23.55.44,1.09.63,1.64a8.14,8.14,0,0,1,.29.92,17.78,17.78,0,0,1,.5,1.83c1.66,7.36.76,15.05-1,22.39s-4.37,14.39-6.22,21.71a61.69,61.69,0,0,0-1.19,6.13.06.06,0,0,0,0,.06c-2.63,17.62.16,41.55,4.59,58v0a55.22,55.22,0,0,0,2,9.8,38.23,38.23,0,0,0,2.78,7.1A31.39,31.39,0,0,0,418,332.89Z"/><path class="cls-8" d="M399.66,185.48l-.65.21c-5.63.49-12.09.92-17.57,1.79-5.21.84-9.21,1.61-14.23,2.54-32.46,6-65.42,14.23-91.11,34.38l-.08.06c-2.21,1.71-4.35,3.55-6.45,5.46-5.73,5.23-11.21,11-18.22,14.36a48.07,48.07,0,0,1-8.82,3A162.77,162.77,0,0,1,217.38,252l-2.81.21c-6.95.38-13.69-.13-19.16-2.33l.25-.11.5-.23c13.25-6,27.56-8.4,39.61-17.72,15.45-12,23.92-31.32,39.74-42.78,15-10.85,34.35-13.08,52.76-14.92,6.44-.63,12.87-1.26,19.33-1.31A110.25,110.25,0,0,1,399.66,185.48Z"/><path class="cls-6" d="M399.91,185.61l-.9.08.65-.21Z"/><path class="cls-3" d="M120.92,427.47s0,.06-.06.08a2.64,2.64,0,0,1-1.72,1.24,2.46,2.46,0,0,1-1.2-.1c-1.49-.46-2.83-2.23-3.27-4.56a6.62,6.62,0,0,1,.63-4.61,2.86,2.86,0,0,1,1.82-1.37,2.22,2.22,0,0,1,1.14.08,2.5,2.5,0,0,1,.81.38,6.44,6.44,0,0,1,2.52,4.2A6.62,6.62,0,0,1,120.92,427.47Z"/><path class="cls-3" d="M268.2,651.77c1,4.6,2,8.91,3,12.81,0,.38-.07.76-.13,1.13-.86,6.57-1.91,11.95-2.69,15.85-.16-.63-.33-1.28-.52-1.95-1.53-5.62-6.15-17.26-7.1-27.84-2.33-10.6-4.55-21.64-6.55-33.06-1.26-7.2-2.28-13.77-3.31-20.68h0l9.53,5.15.35.19a302,302,0,0,0,4.29,32.47C265.64,639,266.67,644.72,268.2,651.77Z"/><path class="cls-11" d="M114.5,324.67a3.06,3.06,0,0,0-.29,2.83l8.12,20.1a3,3,0,0,1-3.65,4.09L97.77,345.9l-.34-.07a3,3,0,0,0-2.43.67l-.59.49-16,13.47a3.05,3.05,0,0,1-5-2.22l-1-21.67A3.14,3.14,0,0,0,71,334.1L52.57,322.61a3.06,3.06,0,0,1,.55-5.45l20.32-7.62a2.92,2.92,0,0,0,1.89-2.12l5.27-21A3.06,3.06,0,0,1,86,285.21l13.5,17a3.11,3.11,0,0,0,2.62,1.15l21.64-1.51a3.06,3.06,0,0,1,2.77,4.73Z"/><path class="cls-6" d="M401.4,185.75c-.27-.16-.54-.29-.81-.42a0,0,0,0,1,0,0,.75.75,0,0,1,.12-.14l0,0,0,0Z"/><path class="cls-6" d="M239,270.42a4.81,4.81,0,0,0,2.87,6.25"/><path class="cls-6" d="M243.78,268.24a5.66,5.66,0,0,0-.34,3.54,5.74,5.74,0,0,0,1.83,3"/><path class="cls-6" d="M248.49,268.87a6.2,6.2,0,0,0-.18,5.61"/><path class="cls-6" d="M329.19,306.57a4.83,4.83,0,0,0,3.32,6"/><path class="cls-6" d="M333.78,304a5.6,5.6,0,0,0-.08,3.55,5.67,5.67,0,0,0,2.05,2.9"/><path class="cls-6" d="M338.52,304.33a6.15,6.15,0,0,0,.23,5.6"/><path class="cls-12" d="M265.08,341c-.32,2.15-.59,4.54.67,6.31s4,2.36,6.22,1.66a12.41,12.41,0,0,0,5.4-4.13"/><path class="cls-13" d="M544.7,321.24c-16,.78-37.56-.23-50.66-7.41-14.25-7.79-25.57-21.88-27.43-38-1.05-9.13.86-18.13,3.42-27,1.59-5.55,3.4-11.07,4.93-16.59,4-14.38,5.35-31.26-4.11-42.8a39.82,39.82,0,0,0-12.2-9.43c-18.07-9.68-45.22-10.83-57.9,5.17h-.12c.52-1,1.07-1.87,1.66-2.77,8.46-13,23.51-20.2,39.15-22,16.85-1.89,33.84,2.39,49.62,8.58,11,4.3,23.09,11.65,23.81,23.39s-10.37,20.44-18.05,29.49a61.09,61.09,0,0,0-14,38.65,59.3,59.3,0,0,0,6.57,28.38c9.47,18.16,28.89,30.54,49.25,32.18a.11.11,0,0,0,.11,0A51.74,51.74,0,0,0,544.7,321.24Z"/><path class="cls-6" d="M402.29,182.38c-.59.9-1.14,1.82-1.66,2.77a0,0,0,0,0,0,0,.11.11,0,0,0-.11,0v0h-.13a8.2,8.2,0,0,0-1.11-.13c.15-.13.28-.27.44-.4l.32-.27C400.75,183.66,401.51,183,402.29,182.38Z"/><path class="cls-8" d="M437.39,269.09a65.44,65.44,0,0,1-11.91,15.24c-10.73,10.31-14.84,37.5-7.45,48.56a31.39,31.39,0,0,1-2.62-4.07,38.23,38.23,0,0,1-2.78-7.1,55.22,55.22,0,0,1-2-9.8v0c-4.43-16.5-7.22-40.43-4.59-58a.06.06,0,0,1,0-.06,61.69,61.69,0,0,1,1.19-6.13c1.85-7.32,4.47-14.4,6.22-21.71s2.68-15,1-22.39a17.78,17.78,0,0,0-.5-1.83,8.14,8.14,0,0,0-.29-.92c-.19-.55-.4-1.09-.63-1.64-.15-.36-.32-.72-.49-1.09-.33-.7-.71-1.41-1.11-2.1-.19-.34-.38-.67-.59-1s-.59-.92-.9-1.36h0a8.54,8.54,0,0,0-.9-1.2,8.63,8.63,0,0,0-.78-1c-.1-.15-.23-.28-.34-.42-.27-.3-.54-.59-.82-.87s-.6-.61-.9-.9l-.31-.29c-.3-.28-.63-.55-.95-.82s-.77-.63-1.15-.9l-1.18-.8a10.74,10.74,0,0,0-1.22-.71h0l-.63-.58,0,0c5.44-.47,11-.91,16.36-.05s13.33,3.87,16.83,8.21c3.15,3.95,8.86,14.87,9.39,19.9.4,3.91.88,8,1.23,12.18C445.72,239.29,445.53,254.46,437.39,269.09Z"/><path class="cls-6" d="M400.63,185.15h.12l0,0A.18.18,0,0,0,400.63,185.15Z"/><path class="cls-13" d="M544.7,321.24c-6.43,2.69-28.32,4.2-35.31,4.24a150.63,150.63,0,0,1-24.92-1.87c-8.4-1.34-16.94-3.52-23.76-8.6-7.41-5.5-12.07-13.92-15.68-22.42a142.66,142.66,0,0,1-7.64-23.5c8.14-14.63,8.33-29.8,7.17-43.7-.35-4.2-.83-8.27-1.23-12.18-.53-5-6.24-16-9.39-19.9-3.5-4.34-11.33-7.34-16.83-8.21s-10.92-.42-16.36.05c12.68-16,39.83-14.85,57.9-5.17a39.82,39.82,0,0,1,12.2,9.43c9.46,11.54,8.06,28.42,4.11,42.8-1.53,5.52-3.34,11-4.93,16.59-2.56,8.9-4.47,17.9-3.42,27,1.86,16.12,13.18,30.21,27.43,38C507.14,321,528.72,322,544.7,321.24Z"/><path class="cls-14" d="M394.21,561c-1.81.56-3.38-3.38-6.49-3.24s-6,4.07-6.84,7.94c-1.5,7.18,5.08,11.9,2.89,15.15-1.51,2.21-5.77,1.81-9.74,1.43l-.25,0a6.12,6.12,0,0,1-.57,2.9c-1,2.26-3.38,3.61-5.58,4.81-3.23,1.78-6.7,3.61-10.37,3.25-5.29-.53-9.15-5.67-10-10.9a22.09,22.09,0,0,1-.11-6.13c-4.18-.08-8.48.66-11.69,3.2a8.91,8.91,0,0,0-2.23,2.58c.15.67.3,1.32.46,2,.88,4.26,1.28,8.86-.48,12.87-2.81,6.4-10.92,9.47-17.67,7.66-6.58-1.8-11.65-7.47-13.9-13.92-6.32-1.46-10.48-3.06-12-1.09-1.36,1.77.78,4.79-.71,6.13a3.1,3.1,0,0,1-2.77.3,15.59,15.59,0,0,1-2.44-.86h0c-.92-.4-1.84-.84-2.71-1.24l-1.09-.48c-1-.45-2.06-.87-3.1-1.26-1.6-.61-3.2-1.18-4.83-1.73,1.55,2.44,3.61,4.71,4.43,7.27a6.7,6.7,0,0,1,.35,2.68,6,6,0,0,1-.79,2.57,9.51,9.51,0,0,1-7.56,4.4,18.49,18.49,0,0,1-7.41-1.34c-1.33-.5-2.65-1.07-3.95-1.64a20.21,20.21,0,0,1-5.71-3.31.3.3,0,0,1-.1-.07,6.88,6.88,0,0,1-2.35-6c.44-2.35,2.45-4,4-5.86a17.34,17.34,0,0,0,2.74-4.45,41.67,41.67,0,0,0-12.49-1.93,24.76,24.76,0,0,0-7.7,1.19c.21.57.44,1.12.63,1.69,1.28,3.61,2,7.78.21,11.18-2.62,4.94-9.22,6-14.84,5.78-4.81-.17-9.91-.89-13.67-3.93-5-4-6.17-11.06-5-17.46-.51-.3-1-.63-1.53-1a15.43,15.43,0,0,0-7.58-2.88c-3-.25-6.09.47-6.72,1.49.48.57,1,1.12,1.41,1.7a8,8,0,0,1,1.72,3.82,6.54,6.54,0,0,1-1,4.1,8.43,8.43,0,0,1-2.27,2.45,17.07,17.07,0,0,1-7.16,2.59c-5.73,1-11.81,1-17.17-1.3s-9.88-7.06-10.7-12.81a15.35,15.35,0,0,1,.33-5.82,9.14,9.14,0,0,0-4.22-2.35c-6.38-1.78-11.21,2-14.06-.73-2.67-2.58-1-8.4-.36-10.46,4.35-14.33,17.84-22.29,34.62-35,20.15-15.22,15.95-15.2,27-22.36a119.6,119.6,0,0,1,27.18-12.93A139.92,139.92,0,0,1,250,483.48l.31,0a60.14,60.14,0,0,0,15.22,2.37,53.75,53.75,0,0,0,6.64-.18l.5,0A59.66,59.66,0,0,0,291,480.9c.29-.12.58-.23.84-.36a158,158,0,0,1,23.78,8.09,140.48,140.48,0,0,1,17,8.83,0,0,0,0,1,0,0q.32.18.63.39c1.86,1.14,3.48,2.19,4.93,3.21,0,0,0,0,.06,0,12.66,8.73,11.72,12.76,30,24.16,4.2,2.62,8.1,4.81,11.57,6.86a61.25,61.25,0,0,1,10.43,7.18,17.84,17.84,0,0,1,5.77,9.39C397.17,553.74,396.39,560.3,394.21,561Z"/><path class="cls-14" d="M187,578.68a15.15,15.15,0,0,1-3.47-5.12c-1.22-3.9,1.22-7.92,3.55-11.29l12.1-17.49"/><path class="cls-14" d="M152.14,573.41c1.22-5,4.67-9.66,8.23-13.6a125.68,125.68,0,0,1,25.19-21.39"/><path class="cls-14" d="M245.61,541.43c1.42,12-13.41,21-12.79,33.06.16,3.23,1.46,6.25,2.62,9.29"/><path class="cls-14" d="M219.35,536.18c2.31,7.23-.5,15.11-4.33,21.65s-8.75,12.55-11.25,19.71a24.2,24.2,0,0,0-1,3.51"/><path class="cls-14" d="M272,590.31a15.08,15.08,0,0,1-1.09-2c-1.94-4.34-1-9.36,0-14l7-32.76"/><path class="cls-14" d="M254.06,566.57a19,19,0,0,1,1.57,17.95"/><path class="cls-14" d="M317.35,541.08q4.31,10.32,8.63,20.62c2.76,6.61,5.54,13.26,7.22,20.22"/><path class="cls-14" d="M301.53,569.34c-1.72,6.79-2.23,14.06-.08,20.71.06.16.11.32.16.48"/><path class="cls-14" d="M355.21,547,371,574.49c1.36,2.37,2.75,5.09,2.8,7.72"/><path class="cls-14" d="M349.17,566.6a60.56,60.56,0,0,0-2.06,9.54"/><polygon class="cls-15" points="71.83 249.18 63.45 247.04 56.94 252.73 56.39 244.1 48.96 239.67 57 236.47 58.92 228.04 64.44 234.7 73.05 233.92 68.43 241.23 71.83 249.18"/><polygon class="cls-15" points="149.92 219.52 143.08 214.23 134.85 216.87 137.76 208.73 132.71 201.72 141.35 201.97 146.46 195 148.89 203.3 157.1 206 149.96 210.88 149.92 219.52"/><polygon class="cls-15" points="6.32 310.02 7.48 301.46 1.09 295.64 9.59 294.1 13.15 286.22 17.24 293.84 25.84 294.78 19.86 301.03 21.61 309.5 13.82 305.74 6.32 310.02"/><polygon class="cls-16" points="53.39 279.46 49.29 277.8 45.59 280.23 45.91 275.82 42.46 273.06 46.75 272 48.31 267.86 50.65 271.61 55.06 271.82 52.22 275.2 53.39 279.46"/><polygon class="cls-16" points="121.47 260.1 117.87 257.53 113.71 259.04 115.04 254.82 112.32 251.34 116.74 251.3 119.22 247.63 120.62 251.83 124.87 253.05 121.32 255.68 121.47 260.1"/><polygon class="cls-16" points="40.4 218.83 36.8 216.26 32.65 217.77 33.98 213.55 31.26 210.07 35.68 210.03 38.15 206.36 39.56 210.56 43.81 211.78 40.25 214.41 40.4 218.83"/><path class="cls-7" d="M261.66,711.42s-.06,0-.1,0"/><line class="cls-7" x1="267.89" y1="712.89" x2="267.87" y2="712.87"/><path class="cls-17" d="M281.22,417.32H261.11c.28-2,.63-4.45.93-7.33h18.7C280.89,411.73,281.08,414.44,281.22,417.32Z"/><path class="cls-17" d="M282.23,431.53H258.57c.26-1.39.65-3.51,1.14-6.24.08-.38.14-.75.19-1.09h21.66c0,.38.06.78.09,1.16v0c.06.86.14,1.68.21,2.52,0,.08,0,.16,0,.23.08,1,.2,2,.31,3C282.21,431.28,282.21,431.4,282.23,431.53Z"/><path class="cls-17" d="M284.61,446.26H256.1c.38-2.45.79-4.91,1.19-7.36h25.95c.17,1.05.34,2.07.55,3.08.1.61.21,1.22.33,1.81C284.29,444.61,284.44,445.43,284.61,446.26Z"/><path class="cls-17" d="M286.85,458c.23,1.24.46,2.54.71,3.88h-34l.63-3.86a27.3,27.3,0,0,0-4.85.1,1.77,1.77,0,0,0,.08-.31,21.18,21.18,0,0,0,5-1.18c.12-.69.23-1.4.35-2.09h31.47c.15.83.3,1.7.48,2.6a21.44,21.44,0,0,0,4.26.73,4.29,4.29,0,0,0,.07.59A32,32,0,0,0,286.85,458Z"/><path class="cls-17" d="M290.29,477.06H251.08c.4-2.44.8-4.89,1.18-7.33H289C289.39,472.11,289.83,474.58,290.29,477.06Z"/><circle class="cls-18" cx="212.49" cy="510.5" r="6.52"/><circle class="cls-18" cx="260.44" cy="504.12" r="6.52"/><circle class="cls-18" cx="295.09" cy="529.66" r="6.52"/><circle class="cls-18" cx="309.15" cy="497.6" r="6.52"/><circle class="cls-18" cx="288.58" cy="573.41" r="6.52"/><circle class="cls-18" cx="225.52" cy="582.66" r="6.52"/><circle class="cls-18" cx="168.85" cy="536.18" r="6.52"/><circle class="cls-18" cx="258.57" cy="543.49" r="6.52"/><circle class="cls-18" cx="338.3" cy="538.26" r="6.52"/><path class="cls-2" d="M267.24,712.58c-.12.44-.5.69-.62,1.14-1.22-1.11-2.12-.93-3.45-1.05a1.14,1.14,0,0,0-.89.3c.08-.47.18-1,.26-1.41a2.4,2.4,0,0,1,1-.23A6.18,6.18,0,0,1,267.24,712.58Z"/><path class="cls-2" d="M283.39,709.87c.08.45.18,1,.27,1.42-1.59-.46-2.32.09-3.56.58-.36.13-.46.31-.66.66-.14-.46-.27-.93-.4-1.38a2.37,2.37,0,0,1,.84-.66A5.13,5.13,0,0,1,283.39,709.87Z"/><path class="cls-18" d="M390.26,539.3a6.51,6.51,0,1,1-10.43-7.18A61.25,61.25,0,0,1,390.26,539.3Z"/><path class="cls-18" d="M213.41,560.42a6.52,6.52,0,0,1,.48-12.81,6.45,6.45,0,0,1,5.11,1.45A60.73,60.73,0,0,1,213.41,560.42Z"/></svg>