<?xml version="1.0" encoding="UTF-8" standalone="no"?>
<!-- Generator: Adobe Illustrator 26.3.1, SVG Export Plug-In . SVG Version: 6.00 Build 0)  -->

<svg
   version="1.1"
   id="Warstwa_1"
   x="0px"
   y="0px"
   viewBox="0 0 547.48694 605.45758"
   xml:space="preserve"
   sodipodi:docname="wrozka-logo.svg"
   width="547.48694"
   height="605.45758"
   inkscape:version="1.2 (dc2aeda, 2022-05-15)"
   xmlns:inkscape="http://www.inkscape.org/namespaces/inkscape"
   xmlns:sodipodi="http://sodipodi.sourceforge.net/DTD/sodipodi-0.dtd"
   xmlns="http://www.w3.org/2000/svg"
   xmlns:svg="http://www.w3.org/2000/svg"><defs
   id="defs210" /><sodipodi:namedview
   id="namedview208"
   pagecolor="#ffffff"
   bordercolor="#666666"
   borderopacity="1.0"
   inkscape:showpageshadow="2"
   inkscape:pageopacity="0.0"
   inkscape:pagecheckerboard="0"
   inkscape:deskcolor="#d1d1d1"
   showgrid="false"
   inkscape:zoom="0.32350925"
   inkscape:cx="387.93327"
   inkscape:cy="248.83369"
   inkscape:window-width="1440"
   inkscape:window-height="791"
   inkscape:window-x="0"
   inkscape:window-y="23"
   inkscape:window-maximized="0"
   inkscape:current-layer="Warstwa_1" />
<style
   type="text/css"
   id="style9">
	.st0{fill:#F8C9DF;stroke:#B2B2B2;stroke-miterlimit:10;}
	.st1{fill:#F8C9DF;}
	.st2{fill:#FEF1E8;stroke:#B2B2B2;stroke-miterlimit:10;}
	.st3{fill:#E4F3F7;stroke:#B2B2B2;stroke-miterlimit:10;}
	.st4{fill:#EDEDED;stroke:#B2B2B2;stroke-miterlimit:10;}
	.st5{fill:none;stroke:#706F6F;stroke-miterlimit:10;}
	.st6{fill:none;stroke:#B2B2B2;stroke-miterlimit:10;}
	.st7{fill:#FCF29C;stroke:#B2B2B2;stroke-miterlimit:10;}
	.st8{fill:#3C3C3B;stroke:#706F6F;stroke-miterlimit:10;}
	.st9{fill:#F6F6F6;stroke:#B2B2B2;stroke-miterlimit:10;}
	.st10{fill:#F8F7D9;stroke:#FFD332;stroke-miterlimit:10;}
	.st11{fill:none;stroke:#9D9D9C;stroke-miterlimit:10;}
	.st12{fill:#ECDF82;stroke:#B2B2B2;stroke-miterlimit:10;}
	.st13{fill:#FFFFFF;stroke:#B2B2B2;stroke-miterlimit:10;}
	.st14{fill:#F6B0A6;stroke:#DADADA;stroke-miterlimit:10;}
	.st15{fill:#9DD8F7;stroke:#DADADA;stroke-miterlimit:10;}
	.st16{fill:#F8C9DF;stroke:#B2B2B2;stroke-width:0.75;stroke-miterlimit:10;}
	.st17{fill:#ADDAD6;stroke:#B2B2B2;stroke-width:0.75;stroke-miterlimit:10;}
</style>
<path
   class="st0"
   d="m 285.78142,601.13437 c -0.9,0.2 -2.2,-2 -3.4,-4 -0.9,-1.5 -1.6,-3 -2.3,-4.6 0.2,-0.1 0.3,-0.2 0.5,-0.3 1.6,-1.1 3.4,-1.8 5.3,-2.1 0.5,1.5 0.8,3.1 0.9,4.7 -0.1,0.3 0.3,5.9 -1,6.3 z"
   id="path11" />
<path
   class="st1"
   d="m 284.68142,587.03437 c -1.3,0.2 -2.6,0.5 -3.9,1 -0.8,0.2 -1.5,0.6 -2.1,1 -0.2,-0.6 -0.4,-1.1 -0.6,-1.6 0.6,-0.4 1.3,-0.7 2,-0.9 1.3,-0.5 2.7,-0.9 4.1,-1 0.2,0.5 0.4,1 0.5,1.5 z"
   id="path13" />
<path
   class="st2"
   d="m 284.18142,585.43437 c -1.4,0.1 -2.8,0.5 -4.1,1 -0.7,0.2 -1.4,0.5 -2,0.9 -0.2,-0.5 -0.3,-1 -0.5,-1.5 -0.7,-2.1 -1.8,-5.4 -3.3,-9.4 -0.7,-1.6 -1.3,-3.1 -1.9,-4.6 0.9,-4.1 1.9,-9.2 3,-15.5 0.5,1.6 0.9,3 1.2,4 1,3.4 1.3,4 2.8,9.1 2.1,6.5 3.7,12 4.8,16 z"
   id="path15" />
<path
   class="st2"
   d="m 285.68142,590.03437 c -1.9,0.3 -3.7,1 -5.3,2.1 -0.1,0.1 -0.3,0.2 -0.5,0.3 -0.5,-1.2 -1,-2.3 -1.4,-3.5 0.7,-0.4 1.4,-0.8 2.1,-1 1.2,-0.5 2.6,-0.8 3.9,-1 0.1,0.2 0.1,0.5 0.2,0.7 0.5,0.8 0.8,1.6 1,2.4 z"
   id="path17" />
<path
   class="st2"
   d="m 267.38142,590.23437 c -0.5,1.3 -1,2.7 -1.5,4 -0.4,-0.3 -0.9,-0.5 -1.4,-0.6 -1.3,-0.5 -2.7,-0.8 -4.1,-0.8 0.3,-1.5 0.5,-2.5 0.7,-3.1 0.1,-0.3 0.1,-0.5 0.2,-0.8 0.3,-0.2 0.7,-0.3 1.1,-0.3 1.8,-0.2 3.6,0.4 5,1.6 z"
   id="path19" />
<path
   class="st0"
   d="m 265.88142,594.23437 c 0,0.1 -0.1,0.2 -0.1,0.3 0,0.1 -0.1,0.3 -0.1,0.4 -1.2,2.7 -2.2,5.5 -3,8.3 0,0.5 -0.2,0.9 -0.5,1.2 -0.4,0.4 -0.9,0.6 -1.5,0.5 -1,-0.2 -1.2,-1.8 -1.3,-2.4 -0.1,-0.5 -0.1,-1.1 0,-1.7 0,-1 0.2,-2.4 0.4,-4.2 0.1,-1.2 0.3,-2.3 0.5,-3.3 0,-0.2 0.1,-0.4 0.1,-0.7 1.4,0.1 2.8,0.3 4.1,0.8 0.5,0.4 1,0.6 1.4,0.8 z"
   id="path21" />
<path
   class="st3"
   d="m 263.18142,275.03437 c 0,0 0,0.1 0,0.1 0,0 0,0.1 0,0.3 0,0 0,0.2 -0.1,0.8 -0.4,5 -0.5,5.3 -0.5,5.3 -0.2,1.2 -0.3,2.4 -0.4,3.5 0,0.3 -0.1,0.6 -0.1,0.9 -0.3,2.9 -0.6,5.4 -0.9,7.3 -0.1,0.6 -0.2,1 -0.2,1.5 -0.1,0.9 -0.4,2.5 -1,5.4 0,0.3 -0.1,0.7 -0.2,1.1 -0.5,2.7 -0.9,4.9 -1.1,6.2 -0.1,0.6 -0.2,1.1 -0.3,1.5 -0.2,1.4 -0.5,2.8 -0.7,4.2 0,0.1 0,0.2 0,0.4 0,0.2 -0.1,0.3 -0.1,0.5 0,0.2 -0.1,0.6 -0.1,0.9 -0.4,2.5 -0.8,4.9 -1.2,7.4 -0.5,2.8 -0.9,5.5 -1.4,8.3 -0.1,0.7 -0.2,1.4 -0.4,2.1 -1.6,0.6 -3.3,1 -5,1.2 -8.8,1 -18.5,-3.2 -24.6,-10.3 -8.5,-9.9 -6.8,-22 -6.6,-24 -0.9,0.2 -10.6,1.8 -19.6,-3.4 0.3,-0.1 0.6,-0.2 0.9,-0.3 4.9,-1.5 10.5,-3.4 19.6,-6.4 10.3,-3.4 20.6,-6.5 30.9,-9.9 4.8,-1.6 10.3,-3.7 13.1,-4.6 z"
   id="path23" />
<path
   class="st3"
   d="m 270.58142,298.53437 c 0,0.4 0,1 0,1.7 -0.1,2.5 -0.3,4.9 -0.6,7.3 -0.1,0.5 -0.1,1 -0.2,1.5 v 0 c -0.3,2 -0.8,3.9 -1.3,5.8 -0.7,2.5 -1.7,5 -2.9,7.4 -1.7,3.3 -4.1,6.2 -7.2,8.3 -1,0.7 -2,1.3 -3.1,1.7 -0.3,0.1 -0.6,0.2 -0.9,0.4 0.1,-0.7 0.2,-1.4 0.4,-2.1 0.4,-2.8 0.9,-5.5 1.3,-8.3 0.4,-2.5 0.8,-4.9 1.2,-7.4 0,-0.3 0.1,-0.6 0.1,-0.9 0,-0.3 0.1,-0.3 0.1,-0.5 0,-0.2 0,-0.2 0,-0.4 0.2,-1.4 0.5,-2.8 0.7,-4.2 0.1,-0.3 0.1,-0.8 0.3,-1.5 0.3,-1.4 0.6,-3.5 1.1,-6.2 0.1,-0.4 0.1,-0.8 0.2,-1.1 0.5,-2.9 0.8,-4.4 1,-5.4 0.1,-0.5 0.1,-1 0.2,-1.5 0.3,-2 0.6,-4.5 0.9,-7.3 0,-0.3 0.1,-0.6 0.1,-0.9 0.1,-1.2 0.3,-2.4 0.4,-3.5 0,0 0.1,-0.3 0.5,-5.3 0.1,-0.6 0.1,-0.8 0.1,-0.8 0,-0.2 0,-0.3 0,-0.3 0,0 0,-0.1 0,-0.1 -2.8,0.9 -8.3,3 -13.2,4.6 -10.3,3.4 -20.6,6.5 -30.9,9.9 -9,3 -14.6,5 -19.6,6.4 -0.3,0.1 -0.6,0.2 -0.9,0.3 -2,-1.2 -3.8,-2.6 -5.4,-4.2 -0.9,-1 -1.8,-2 -2.6,-3.1 v 0 c -5.6,-8 -6.7,-18.4 -2.9,-27.5 -2.2,0.3 -20.9,2.3 -32.7,-10.9 -11.8,-13.2 -22.6,-36.8 -13.1,-45 16.2,-14 73.4,11.7 100.3,38.5 5.2,5.2 12.2,12.3 18,21.3 2,3.2 3.8,6.5 5.4,9.9 l 0.5,1.2 v 0 c 1.3,3.1 2.4,6.4 3.1,9.7 0.2,0.8 0.4,1.6 0.5,2.4 v 0 c 0.3,1.6 0.5,3.2 0.6,4.9 0.5,1.7 0.6,3.4 0.5,5.2 z"
   id="path25" />
<path
   class="st3"
   d="m 313.18142,325.23437 c -5.9,5.9 -14.4,9.3 -22.2,8.7 -1.4,-0.1 -2.9,-0.3 -4.3,-0.7 -0.2,-0.9 -0.3,-1.8 -0.5,-2.6 -0.4,-2 -0.7,-3.8 -1,-5.4 l -0.6,-2.9 c -0.2,-0.8 -0.3,-1.6 -0.5,-2.5 -0.1,-0.6 -0.2,-1.2 -0.3,-1.8 -0.2,-1 -0.4,-2 -0.5,-3.1 -0.4,-2.4 -0.7,-4.8 -1,-7.4 0,-0.1 0,-0.2 0,-0.4 -0.1,-1 -0.2,-2 -0.3,-3 0,-0.1 0,-0.1 0,-0.2 -0.1,-0.8 -0.1,-1.7 -0.2,-2.5 v 0 c 0,-0.4 -0.1,-0.8 -0.1,-1.2 0,-0.4 -0.1,-0.9 -0.1,-1.3 0,-0.1 0,-0.3 0,-0.5 -0.1,-1.2 -0.1,-2.4 -0.2,-3.6 0,-0.5 0,-1 0,-1.5 -0.1,-2.9 -0.3,-5.6 -0.5,-7.3 -0.1,-1.2 -0.1,-2 -0.1,-2 0,-3.3 -0.3,-5.9 -0.2,-8.2 5.2,6.6 8.3,14.7 9.2,16.1 0.2,0.2 0.7,1.2 1.6,2.4 1.1,1.7 2.2,2.8 12.3,17 0.9,1.3 1.9,2.7 3,4.2 1.1,1.5 2.2,3.1 3.2,4.5 v 0 c 1.1,2.1 2.2,3.8 3.3,5.2 z"
   id="path27" />
<path
   class="st3"
   d="m 384.48142,250.53437 c -11.8,13.2 -30.5,11.2 -32.7,10.9 4.4,10.6 2.2,22.7 -5.5,30.5 -10,10.2 -23.9,7.9 -25.1,7.6 0.3,1.8 1.6,11.9 -4.4,21.1 -0.7,1 -1.4,2 -2.2,2.9 -0.5,0.6 -1,1.1 -1.6,1.7 -1,-1.5 -2.2,-3.1 -3.6,-5 v 0 c -1,-1.3 -2,-2.8 -3.2,-4.5 -1.2,-1.7 -2.1,-2.9 -3,-4.2 -10.1,-14.2 -11.2,-15.4 -12.3,-17 -0.9,-1.2 -1.5,-2.2 -1.6,-2.4 -0.9,-1.4 -4,-9.6 -9.2,-16.1 0,2.2 0.2,4.9 0.2,8.2 0,0 0,0.8 0.1,2 0.1,1.7 0.3,4.5 0.5,7.3 0,0.5 0,1 0,1.5 0,1.2 0.1,2.4 0.2,3.6 0,0.1 0,0.3 0,0.5 0,0.4 0,0.9 0.1,1.3 0.1,0.4 0.1,0.8 0.1,1.2 v 0 c 0.1,0.9 0.1,1.7 0.2,2.5 0,0.1 0,0.2 0,0.2 0.1,1 0.2,2 0.3,3 0,0.1 0,0.2 0,0.4 0.3,2.5 0.6,5 1,7.4 0.2,1 0.3,2.1 0.5,3.1 0.1,0.6 0.2,1.2 0.3,1.8 0.2,0.8 0.3,1.6 0.5,2.5 l 0.6,2.9 c 0.3,1.5 0.6,3.4 1,5.4 0.1,0.8 0.3,1.7 0.5,2.6 -0.9,-0.2 -1.7,-0.5 -2.5,-0.9 -1.1,-0.5 -2.1,-1 -3.1,-1.7 -3,-2.1 -5.5,-5 -7.2,-8.3 -1.2,-2.3 -2.2,-4.8 -2.9,-7.4 -0.6,-1.9 -1,-3.8 -1.3,-5.8 v 0 c -0.1,-0.5 -0.2,-1 -0.2,-1.5 -0.3,-2.4 -0.5,-4.9 -0.6,-7.3 0,-0.7 0,-1.3 0,-1.7 0,-1.7 0,-3.4 0.2,-5.1 0.1,-1.6 0.3,-3.3 0.6,-4.9 v 0 c 0.1,-0.8 0.3,-1.6 0.5,-2.4 0.6,-2.9 1.5,-5.7 2.6,-8.5 0.2,-0.7 0.5,-1.3 0.8,-2 1.7,-3.9 3.8,-7.7 6.2,-11.3 4.1,-6 8.8,-11.7 13.9,-16.9 1.2,-1.2 2.3,-2.4 3.4,-3.5 3.2,-3.1 6.5,-6.1 10,-8.9 3.5,-2.8 7.3,-5.5 11.2,-8.1 26.6,-17.7 61,-30.4 75.9,-23.5 1.2,0.5 2.2,1.2 3.2,2 10.2,8 -0.7,31.7 -12.4,44.8 z"
   id="path29" />
<path
   class="st3"
   d="m 254.18142,334.03437 -0.6,3.9 c -0.4,2.6 -0.8,5.2 -1.3,7.9 -0.4,2.4 -0.8,4.9 -1.2,7.3 -0.3,2.1 -0.7,4.3 -1.1,6.4 -9.4,1.1 -18.7,3.2 -27.7,6.1 -0.5,-5.3 0,-12.7 4.7,-19.4 5.3,-7.5 14.1,-11.4 22.3,-12.1 1.6,-0.2 3.3,-0.2 4.9,-0.1 z"
   id="path31" />
<path
   class="st4"
   d="m 268.88142,347.33437 c 0,1.9 -0.2,3.9 -0.7,5.8 -0.6,3 -1.5,5.9 -2.7,8.8 l -0.6,1.4 c -3.8,8.7 -8.6,17 -14.2,24.6 -6.8,9.1 -19.1,22.5 -30.7,28.5 -0.9,0.5 -1.9,0.9 -2.8,1.3 -4.8,2 -9.4,2.6 -13.2,0.7 -10.8,-5.3 -16.5,-30.5 -4.2,-41.5 8.6,-7.7 21.9,-4.7 23.7,-4.2 -0.7,-2.3 -1.1,-4.6 -1.3,-6.9 9,-3 18.3,-5 27.7,-6.1 0.3,-2.1 0.7,-4.3 1.1,-6.4 0.4,-2.4 0.8,-4.9 1.2,-7.3 0.4,-2.6 0.9,-5.2 1.3,-7.9 l 0.6,-3.9 c 4.5,0.3 8.5,1.6 11.1,3.9 0.3,0.2 0.6,0.5 0.8,0.8 1.7,2 2.7,4.5 2.8,7.1 0.1,0.2 0.1,0.8 0.1,1.3 z"
   id="path33" />
<path
   class="st3"
   d="m 315.58142,364.63437 c -7.7,-3.3 -15.7,-6 -23.8,-8.1 -0.3,0.1 -0.5,0.2 -0.8,0.4 -0.2,-1.3 -0.5,-2.6 -0.7,-3.8 -0.5,-2.5 -0.9,-5 -1.3,-7.3 -0.5,-2.7 -1,-5.4 -1.4,-7.9 -0.2,-1.3 -0.5,-2.6 -0.7,-3.9 1.4,0.1 2.8,0.2 4.2,0.5 7.4,1.3 15,5.1 19.8,11.8 3.6,5.3 5.3,11.8 4.7,18.3 z"
   id="path35" />
<path
   class="st4"
   d="m 333.68142,418.33437 c -13.5,6.6 -36.4,-16.8 -46.6,-30.5 -5.7,-7.7 -10.5,-16.1 -14.3,-24.9 -0.2,-0.4 -0.4,-0.9 -0.5,-1.3 -1.1,-2.8 -2,-5.6 -2.6,-8.6 -0.4,-1.9 -0.7,-3.8 -0.7,-5.8 0,-0.5 0,-1 0.1,-1.6 0.1,-2.6 1.1,-5.1 2.8,-7.1 0.2,-0.3 0.5,-0.5 0.8,-0.8 3.1,-2.8 8.5,-4.1 14.3,-3.9 0.2,1.2 0.5,2.5 0.7,3.9 0.4,2.5 0.9,5.1 1.4,7.9 0.4,2.4 0.9,4.9 1.3,7.3 0.2,1.3 0.5,2.6 0.7,3.8 0.3,-0.1 0.6,-0.2 0.8,-0.4 8.1,2.1 16.1,4.8 23.8,8.1 -0.2,2.7 -0.6,5.3 -1.4,7.9 1.5,-0.4 10.5,-2.4 18.5,0.9 v 0 c 1.9,0.8 3.7,1.9 5.3,3.3 0.1,0.1 0.2,0.2 0.3,0.3 0,0 0,0 0.1,0 11.5,11.5 5.9,36.3 -4.8,41.5 z"
   id="path37" />
<path
   class="st5"
   d="m 538.68142,197.13437 c 2.1,0.1 4.1,0.1 6,0.2 -2,0 -4,-0.1 -6,-0.2 z"
   id="path39" />
<path
   class="st2"
   d="m 402.38142,84.634367 c 0.6,-2.5 0.8,-5.1 0.6,-7.7 -0.6,-6.7 -1.4,-12.1 -2.5,-15.4 v 0 l -0.1,0.1 c 0,-0.1 0.1,-0.1 0.1,-0.2 0,0 0,0 0,-0.1 h -0.1 v 0 l -0.1,0.1 v 0 c -60.5,48.200003 -65,47.200003 -65,47.200003 -41.9,23.1 -90.7,23.1 -118,19.5 l -2.8,0.2 c -11.5,31.6 -8,60.5 -3.2,70.2 4.9,10 14.8,17.5 14.8,17.5 10.1,7.2 12.4,7.8 21.9,12.9 9.5,5.1 14.2,8 20.1,10.7 1.5,0.7 2.9,1.2 2.9,1.2 0,0 2.9,1.2 6.7,2.4 0.4,0.1 0.7,0.2 0.7,0.2 l 2.4,0.8 c 4.5,1.4 8.8,2.4 13,3.2 40.1,7.8 66.7,-6.9 66.7,-6.9 18.1,-10.3 28.4,-25.9 33.9,-37.1 0.9,-1.8 1.6,-3.4 2.3,-4.9 l -0.1,-0.2 v 0 c -2.1,-3.1 -4.1,-6.3 -5.9,-9.6 -2.5,-4.6 -4.6,-9.4 -6.3,-14.4 -3.9,-11.5 -5.7,-23.6 -5.3,-35.7 0.3,-18.6 19.5,-36.9 23.3,-54.000003 z m -151,79.800003 c -2.8,5.5 -8,8.4 -11.6,6.5 -3.6,-1.9 -4.4,-7.8 -1.6,-13.2 2.8,-5.4 8,-8.4 11.6,-6.5 3.6,1.9 4.4,7.7 1.6,13.2 z m 77.8,28.7 c 2.8,-5.5 8,-8.4 11.7,-6.5 3.7,1.9 4.4,7.8 1.6,13.2 -2.8,5.4 -8,8.4 -11.7,6.5 -3.7,-1.9 -4.3,-7.7 -1.6,-13.2 z"
   id="path41" />
<path
   class="st6"
   d="m 118.28142,294.23437 c -0.4,-0.1 -0.8,-0.2 -1.1,-0.1 -0.8,0.2 -1.4,0.7 -1.8,1.4 l -21,-72.5 0.6,-0.5 c 0.7,-0.6 1.6,-0.8 2.4,-0.7 z"
   id="path43" />
<path
   class="st1"
   d="m 332.98142,234.33437 c -1.7,-3.1 -5.7,-5.9 -10.7,-7 -1.3,-0.3 -2.6,-0.4 -3.9,-0.4 -3.2,-0.2 -6.3,0.8 -8.9,2.7 -1.1,0.9 -1.9,2.2 -2.3,3.6 -0.1,0.6 -0.2,1.2 -0.1,1.9 0.5,4.2 5.1,8.2 11.5,9.5 0.2,0 0.3,0.1 0.5,0.1 3.2,0.7 6.5,0.4 9.6,-0.8 2.6,-1 4.4,-2.9 4.9,-5.2 0.5,-1.5 0.2,-3.1 -0.6,-4.4 z m -96.8,-42.9 c -4.2,-3.1 -9,-4.3 -12.5,-3.4 -1.4,0.4 -2.7,1.2 -3.6,2.3 -2.9,3.9 -0.4,10.7 5.5,15.1 0.1,0.1 0.3,0.2 0.4,0.3 2.6,2 5.7,3.1 9,3.4 2.8,0.1 5.2,-0.7 6.6,-2.6 0.9,-1.3 1.3,-2.8 1.2,-4.3 -0.1,-3.5 -2.6,-7.7 -6.6,-10.8 z"
   id="path45" />
<path
   class="st5"
   d="m 342.48142,199.93437 c -2.8,5.5 -8,8.4 -11.7,6.5 -3.7,-1.9 -4.4,-7.8 -1.6,-13.3 2.8,-5.5 8,-8.4 11.7,-6.5 3.7,1.9 4.4,7.8 1.6,13.3 z"
   id="path47" />
<path
   class="st5"
   d="m 400.48142,61.334367 v 0 0 c 0,-0.1 0,0 0,0 z"
   id="path49" />
<path
   class="st5"
   d="m 400.58142,61.434367 -0.1,0.1 c -0.1,0 0,-0.1 0.1,-0.1 0,-0.1 -0.1,0 0,0 z"
   id="path51" />
<path
   class="st5"
   d="m 400.48142,61.234367 v 0"
   id="path53" />
<path
   class="st5"
   d="m 400.48142,61.234367 v 0"
   id="path55" />
<path
   class="st5"
   d="m 400.38142,61.234367 c 0.1,0 0.1,0 0,0"
   id="path57" />
<path
   class="st5"
   d="m 400.58142,61.034367 c 0,0.1 -0.1,0.1 -0.1,0.1 v 0 0 0 0 0"
   id="path59" />
<path
   class="st5"
   d="m 386.68142,75.334367 v 0"
   id="path61" />
<path
   class="st7"
   d="m 400.38142,61.234367 v 0 0 c -60.6,48.200003 -65.1,47.300003 -65.1,47.300003 -41.9,23.1 -90.7,23.1 -118,19.5 8.5,-0.9 16.9,-2.5 25.1,-4.7 3,-0.7 6,-1.7 8.8,-3 7,-3.3 12.5,-9.1 18.2,-14.4 2.1,-1.9 4.2,-3.8 6.5,-5.5 l 0.1,-0.1 c 25.7,-20.200003 58.7,-28.400003 91.1,-34.400003 5,-0.9 9,-1.7 14.2,-2.5 5.5,-0.9 11.9,-1.3 17.6,-1.8 l 0.9,-0.1 -0.2,-0.1 z"
   id="path63" />
<path
   class="st7"
   d="m 400.48142,61.234367 v 0 0 l -0.8,0.2 c -16.1,-8.4 -33.9,-12.8 -52.1,-12.6 -6.5,0 -12.9,0.7 -19.3,1.3 -18.4,1.8 -37.8,4.1 -52.8,14.9 -15.8,11.5 -24.3,30.8 -39.7,42.800003 -12.1,9.3 -26.4,11.7 -39.6,17.7 l -0.6,0.2 v 0 l -0.5,0.1 c 0.3,-9.1 15.4,-19.9 20.3,-34.400003 13,-38 38.8,-92.4999999 95,-90.89999986 54.8,1.59999996 87.8,56.49999986 90.1,60.59999986 v 0 z"
   id="path65" />
<path
   class="st5"
   d="m 400.48142,61.334367 v 0 0"
   id="path67" />
<path
   class="st7"
   d="m 400.48142,61.234367 v 0 l -0.8,0.2 c -16.1,-8.4 -33.9,-12.8 -52.1,-12.6 -6.5,0 -12.9,0.7 -19.3,1.3 -18.4,1.8 -37.8,4.1 -52.8,14.9 -15.8,11.5 -24.3,30.8 -39.7,42.800003 -12.1,9.3 -26.4,11.7 -39.6,17.7 l -0.5,0.2 c 0,0 0,0 -0.1,0 v 0 c -1.4,-0.8 10.6,-8.2 25.7,-22.5 29.8,-28.100003 22.9,-45.500003 43.6,-61.100003 31.5,-23.8 80.5,-8.4 91,-5.1 16.3,5.3 31.4,13.4 44.6,24.2 z"
   id="path69" />
<path
   class="st5"
   d="M 400.58142,61.334367 Z"
   id="path71" />
<path
   class="st5"
   d="m 400.58142,61.134367 h -0.1 v 0"
   id="path73" />
<path
   class="st8"
   d="m 342.48142,199.93437 c -2.8,5.5 -8,8.4 -11.7,6.5 -3.7,-1.9 -4.4,-7.8 -1.6,-13.3 2.8,-5.5 8,-8.4 11.7,-6.5 3.7,1.9 4.4,7.8 1.6,13.3 z"
   id="path75" />
<path
   class="st8"
   d="m 251.48142,164.43437 c -2.8,5.5 -8,8.4 -11.6,6.5 -3.6,-1.9 -4.4,-7.8 -1.6,-13.3 2.8,-5.5 8,-8.4 11.6,-6.5 3.6,1.9 4.3,7.8 1.6,13.3 z"
   id="path77" />
<path
   class="st5"
   d="m 280.18142,231.03437 -0.4,-0.1"
   id="path79" />
<path
   class="st9"
   d="m 291.18142,358.03437 c -5.8,2.6 -11.9,4.2 -18.2,4.9 h -0.3 c -2.6,0.2 -5.1,0.3 -7.7,0.3 -5.1,-0.1 -10.2,-0.9 -15.2,-2.3 0.1,-0.5 0.1,-0.9 0.2,-1.4 0.3,-2.1 0.7,-4.3 1.1,-6.4 0.4,-2.4 0.8,-4.9 1.2,-7.3 0.4,-2.6 0.9,-5.2 1.3,-7.9 l 0.6,-3.9 c 0.1,-0.5 0.2,-0.9 0.2,-1.4 0.1,-0.7 0.2,-1.4 0.4,-2.1 0.4,-2.8 0.9,-5.5 1.4,-8.3 0.4,-2.5 0.8,-4.9 1.2,-7.4 0,-0.3 0.1,-0.6 0.1,-0.9 0,-0.3 0.1,-0.3 0.1,-0.5 0,-0.2 0,-0.2 0,-0.4 0.2,-1.4 0.5,-2.8 0.7,-4.2 0.1,-0.3 0.1,-0.8 0.3,-1.5 0.3,-1.4 0.6,-3.5 1.1,-6.2 0.1,-0.4 0.1,-0.8 0.2,-1.1 0.5,-2.9 0.8,-4.4 1,-5.4 0.1,-0.5 0.1,-1 0.2,-1.5 0.3,-2 0.6,-4.5 0.9,-7.3 0,-0.3 0.1,-0.6 0.1,-0.9 0.1,-1.2 0.3,-2.4 0.4,-3.5 0,0 0.1,-0.3 0.5,-5.3 0.1,-0.6 0.1,-0.8 0.1,-0.8 0,-0.2 0,-0.3 0,-0.3 0,0 0,-0.1 0,-0.1 v 0 l 2.4,0.1 8.1,0.4 6.6,0.3 v 0 c 0,2.2 0.2,4.9 0.2,8.2 0,0 0,0.8 0.1,2 0.1,1.7 0.3,4.5 0.5,7.3 0,0.5 0,1 0,1.5 0,1.2 0.1,2.4 0.2,3.6 0,0.1 0,0.3 0,0.5 0,0.4 0,0.9 0.1,1.3 0.1,0.4 0.1,0.8 0.1,1.2 v 0 c 0.1,0.9 0.1,1.7 0.2,2.5 0,0.1 0,0.2 0,0.2 0.1,1 0.2,2 0.3,3 0,0.1 0,0.2 0,0.4 0.3,2.5 0.6,5 1,7.4 0.2,1 0.3,2.1 0.5,3.1 0.1,0.6 0.2,1.2 0.3,1.8 0.2,0.8 0.3,1.6 0.5,2.5 l 0.6,2.9 c 0.3,1.5 0.6,3.4 1,5.4 0.1,0.8 0.3,1.7 0.5,2.6 0,0.3 0.1,0.6 0.1,0.9 0.2,1.2 0.5,2.5 0.7,3.9 0.4,2.5 0.9,5.1 1.4,7.9 0.4,2.4 0.9,4.9 1.3,7.3 0.2,1.3 0.5,2.6 0.7,3.8 0.5,0.4 0.6,0.8 0.7,1.1 z"
   id="path81" />
<path
   class="st2"
   d="m 393.98142,384.93437 c 1,1.4 2,2.8 3,4.2 -3.2,-2.2 -7.4,-5 -12.5,-8.2 l -0.8,-0.5 c -4.2,-2.6 -9.2,-5.6 -15.5,-8.8 -14.3,-7.3 -14.3,-6.7 -22.5,-13.1 -3.3,-2.6 -9.2,-6.2 -12.1,-9.1 -4.9,-5 -8.5,-8.2 -12.7,-13.7 -2.7,-3.5 -4.6,-6.2 -7.6,-10.4 -1,-1.5 -2.2,-3.1 -3.6,-5 v 0 c -1,-1.3 -2,-2.8 -3.2,-4.5 -1.2,-1.7 -2.1,-2.9 -3,-4.2 -10.1,-14.2 -11.2,-15.4 -12.3,-17 -0.9,-1.2 -1.5,-2.2 -1.6,-2.4 -0.9,-1.4 -4,-9.6 -9.2,-16.1 -2.3,1.1 -4.9,1.7 -7.4,1.7 -2.3,0 -4.6,-0.4 -6.8,-1.2 v 0 c -1,-0.4 -2,-0.8 -3,-1.3 -2.8,0.9 -8.3,3 -13.2,4.6 -10.3,3.4 -20.6,6.5 -30.9,9.9 -9,3 -14.6,5 -19.6,6.4 -0.3,0.1 -0.6,0.2 -0.9,0.3 -3.1,0.9 -6.2,1.7 -9.4,2.3 -8.7,1.7 -17.6,2.4 -26.5,2.1 l -41.8,3.1 v 0 -0.1 0 c 0.8,-1.4 1,-3.1 0.7,-4.7 0,-0.2 -0.1,-0.5 -0.2,-0.7 -0.1,-0.3 -0.2,-0.6 -0.3,-0.8 0,0 0,-0.1 -0.1,-0.1 -0.1,-0.3 -0.2,-0.5 -0.4,-0.7 -0.1,-0.1 -0.2,-0.3 -0.2,-0.4 -0.2,-0.2 -0.4,-0.5 -0.6,-0.7 -0.3,-0.3 -0.5,-0.5 -0.8,-0.7 v 0 0 l 42.2,-2.1 c 8.6,0.1 17.2,-0.8 25.6,-2.8 0.7,-0.2 1.5,-0.4 2.2,-0.6 0.4,-0.1 0.9,-0.2 1.5,-0.3 v 0 c 3.6,-0.6 11.4,-1.4 17.5,-3.4 12.6,-4.2 8.9,-5.5 22.8,-10.2 7.4,-2.5 14.5,-5.8 22,-7.9 2.4,-0.7 5,-1.3 7.3,-2.1 3.8,-1.3 7,-3.1 8.6,-6.4 0.7,-1.7 1.2,-3.4 1.5,-5.1 0.7,-4.3 0.9,-8.6 0.7,-12.9 0,0 2.9,1.2 6.7,2.4 0.4,0.1 0.7,0.2 0.7,0.2 -0.6,2.6 -1.6,9.2 -1,13.4 0.3,2.5 1.1,5 2.3,7.3 0,0 0.1,0.1 0.1,0.2 0.5,0.9 1.3,2 4.5,5.7 2.2,2.5 3.2,3.7 4.8,5.4 5.8,6.1 15.3,23.5 21.5,34.6 0.1,0.1 0.1,0.1 0.1,0.2 2.4,4.2 4.4,7.7 6.1,10.5 0.8,1.4 1.5,2.6 2.2,3.7 4.3,6.9 6,8.7 7.4,10.1 4.7,4.5 9.6,8.6 14.7,12.5 2.2,1.8 3.8,3 14.5,10.9 10.7,7.9 16.1,12 17.7,12.9 2,1.2 3.9,2.2 5.6,3.2 5.1,2.6 10.4,4.8 15.9,6.4 3.8,1.2 7.6,2.1 11.5,2.8 z"
   id="path83" />
<path
   class="st2"
   d="m 287.38142,466.73437 c -0.1,1.4 -0.5,2.8 -1.2,4.1 0,0.4 -0.1,0.7 -0.1,1.1 -0.3,3.9 -0.2,9 -1.5,20.3 -2.3,19.9 -4.5,35.2 -5.2,39.6 -1.5,9.8 -2.8,17.9 -4,24.5 -1.1,6.4 -2.1,11.5 -3,15.5 -1.7,7.9 -3,12 -3.7,14.3 -0.3,0.9 -0.6,1.8 -0.9,2.7 -1.4,-1.2 -3.1,-1.8 -5,-1.7 -0.4,0 -0.9,0.1 -1.3,0.2 1,-4.5 2,-9.1 3.1,-13.7 1.6,-6.7 2.4,-10 3.2,-14.4 0.1,-0.6 0.2,-1.2 0.4,-1.8 0.8,-3.9 1.8,-9.3 2.7,-15.8 0,-0.4 0.1,-0.7 0.1,-1.1 0.4,-3 0.8,-7 1.5,-15.5 0.8,-11.2 1.3,-19.9 1.5,-24.6 0.2,-4 1.1,-13.2 1.8,-21.7 0.2,-1.8 0.3,-3.6 0.4,-5.2 0.2,-2 0.3,-3.9 0.4,-5.5 0,-0.5 0.1,-1 0.1,-1.4 0.5,0.5 1.2,1.1 1.9,1.8 0.4,0.3 0.8,0.7 1.1,0.9 1.1,1 2.4,1.6 3.8,1.7 0.4,0 0.8,-0.1 1.2,-0.2 1,-0.4 1.6,-0.5 2.1,-2.5 0.1,-0.2 0.1,-0.4 0.1,-0.6 0.4,-0.3 0.5,-0.7 0.5,-1 z"
   id="path85" />
<path
   class="st6"
   d="m 120.88142,303.53437 v 0 c 0,0 0,0 0,0 z"
   id="path87" />
<path
   class="st6"
   d="m 127.68142,331.13437 -1,0.3 c -0.6,0.2 -1.2,-0.2 -1.4,-0.8 l -7.5,-25.9 c 0.4,0.1 0.8,0.2 1.2,0.1 0.7,-0.2 1.3,-0.6 1.7,-1.2 0,0 0.1,0 0.1,-0.1 v 0.1 l 7.5,26.2 c 0.3,0.5 0,1.1 -0.6,1.3 z"
   id="path89" />
<path
   class="st5"
   d="m 409.98142,69.634367 -8.5,-7.9 c 0.4,0.2 0.8,0.5 1.2,0.7 l 1.2,0.8 1.1,0.9 c 0.3,0.3 0.6,0.5 1,0.8 l 0.3,0.3 c 0.3,0.3 0.6,0.6 0.9,0.9 0.3,0.3 0.5,0.6 0.8,0.9 0.1,0.1 0.2,0.3 0.3,0.4 0.3,0.3 0.5,0.7 0.8,1 0.3,0.4 0.6,0.8 0.9,1.2 z"
   id="path91" />
<path
   class="st5"
   d="m 400.48142,61.334367 v 0 c 0,-0.1 0,-0.1 0.1,-0.2"
   id="path93" />
<path
   class="st7"
   d="m 417.98142,208.93437 c -8.3,-0.3 -16.1,-4.2 -21.5,-10.6 v 0 c -2.1,-3.1 -4.1,-6.3 -5.9,-9.6 -2.5,-4.6 -4.6,-9.4 -6.3,-14.4 -3.8,-11.5 -5.6,-23.5 -5.3,-35.6 0.4,-18.8 19.6,-37.1 23.5,-54.200003 0.6,-2.5 0.8,-5.1 0.6,-7.7 -0.6,-6.7 -1.4,-12.1 -2.4,-15.4 v 0 0 c 0.3,0.1 0.5,0.3 0.8,0.4 v 0 c 0.4,0.2 0.8,0.5 1.2,0.7 l 1.2,0.8 1.1,0.9 c 0.3,0.3 0.6,0.5 1,0.8 l 0.3,0.3 c 0.3,0.3 0.6,0.6 0.9,0.9 0.3,0.3 0.5,0.6 0.8,0.9 0.1,0.1 0.2,0.3 0.3,0.4 0.3,0.3 0.5,0.7 0.8,1 0.3,0.4 0.6,0.8 0.9,1.2 v 0 c 0.3,0.4 0.6,0.9 0.9,1.4 0.3,0.5 0.4,0.6 0.6,1 0.4,0.7 0.8,1.4 1.1,2.1 0.2,0.4 0.3,0.7 0.5,1.1 0.2,0.6 0.4,1.1 0.6,1.6 0.1,0.3 0.2,0.6 0.3,0.9 0.2,0.6 0.4,1.2 0.5,1.8 1.7,7.4 0.8,15.1 -1,22.400003 -1.8,7.3 -4.4,14.4 -6.2,21.7 -0.5,2 -0.9,4.1 -1.2,6.1 0,0 0,0 0,0.1 -2.6,17.6 0.2,41.5 4.6,58 v 0 c 0.4,3.3 1,6.6 2,9.8 0.7,2.5 1.6,4.8 2.8,7.1 0.7,1.5 1.5,2.8 2.5,4.1 z"
   id="path95" />
<path
   class="st7"
   d="m 399.68142,61.534367 -0.6,0.2 c -5.6,0.5 -12.1,0.9 -17.6,1.8 -5.2,0.8 -9.2,1.6 -14.2,2.5 -32.5,6 -65.4,14.2 -91.1,34.400003 l -0.1,0.1 c -2.2,1.7 -4.4,3.6 -6.5,5.5 -5.7,5.2 -11.2,11 -18.2,14.4 -2.8,1.3 -5.8,2.3 -8.8,3 -8.2,2.2 -16.7,3.8 -25.1,4.7 l -2.8,0.2 c -6.9,0.4 -13.7,-0.1 -19.2,-2.3 l 0.2,-0.1 0.5,-0.2 c 13.2,-6 27.6,-8.4 39.6,-17.7 15.4,-12.000003 23.9,-31.300003 39.7,-42.800003 15,-10.9 34.4,-13.1 52.8,-14.9 6.4,-0.6 12.9,-1.3 19.3,-1.3 18.1,-0.3 36,4 52.1,12.5 z"
   id="path97" />
<path
   class="st5"
   d="m 399.88142,61.634367 -0.9,0.1 0.6,-0.2 z"
   id="path99" />
<path
   class="st2"
   d="m 120.88142,303.53437 c 0,0 0,0 0,0 -0.4,0.7 -1.1,1.2 -1.8,1.3 -0.4,0.1 -0.8,0 -1.2,-0.1 -1.5,-0.5 -2.8,-2.2 -3.3,-4.6 -0.4,-1.6 -0.1,-3.2 0.6,-4.6 0.4,-0.7 1,-1.2 1.8,-1.4 0.4,-0.1 0.8,0 1.1,0.1 0.3,0.1 0.6,0.2 0.8,0.4 1.4,1 2.3,2.5 2.5,4.2 0.5,1.6 0.3,3.3 -0.5,4.7 z"
   id="path101" />
<path
   class="st2"
   d="m 268.18142,527.83437 c 1,4.6 2,8.9 3,12.8 0,0.4 -0.1,0.8 -0.1,1.1 -0.9,6.6 -1.9,12 -2.7,15.8 -0.2,-0.6 -0.3,-1.3 -0.5,-2 -1.5,-5.6 -6.1,-17.3 -7.1,-27.8 -2.3,-10.6 -4.5,-21.6 -6.6,-33.1 -1.3,-7.2 -2.3,-13.8 -3.3,-20.7 v 0 l 9.5,5.2 0.4,0.2 c 0.8,10.9 2.3,21.7 4.3,32.5 0.5,3.2 1.6,8.9 3.1,16 z"
   id="path103" />
<path
   class="st10"
   d="m 114.48142,200.73437 c -0.6,0.8 -0.7,1.9 -0.3,2.8 l 8.1,20.1 c 0.7,1.5 0,3.3 -1.5,4 -0.7,0.3 -1.4,0.3 -2.1,0.1 l -20.9,-5.8 -0.3,-0.1 c -0.9,-0.1 -1.8,0.1 -2.4,0.7 l -0.6,0.5 -16,13.5 c -1.3,1.1 -3.2,0.9 -4.3,-0.4 -0.4,-0.5 -0.7,-1.2 -0.7,-1.8 l -1,-21.7 c 0,-1 -0.6,-1.9 -1.4,-2.5 l -18.4,-11.5 c -1.4,-0.9 -1.9,-2.8 -1,-4.2 0.4,-0.6 0.9,-1 1.5,-1.2 l 20.3,-7.6 c 1,-0.3 1.7,-1.1 1.9,-2.1 l 5.3,-21 c 0.4,-1.6 2,-2.7 3.7,-2.3 0.7,0.2 1.3,0.5 1.7,1.1 l 13.5,17 c 0.6,0.8 1.6,1.2 2.6,1.1 l 21.6,-1.5 c 1.7,-0.1 3.1,1.2 3.3,2.8 0,0.7 -0.1,1.3 -0.5,1.9 z"
   id="path105" />
<path
   class="st5"
   d="m 401.38142,61.834367 c -0.3,-0.2 -0.5,-0.3 -0.8,-0.4 v 0 c 0,-0.1 0.1,-0.1 0.1,-0.1 v 0 0 z"
   id="path107" />
<path
   class="st5"
   d="m 238.98142,146.43437 c -1,2.5 0.3,5.3 2.8,6.2 0,0 0.1,0 0.1,0"
   id="path109" />
<path
   class="st5"
   d="m 243.78142,144.23437 c -0.5,1.1 -0.6,2.4 -0.3,3.5 0.3,1.2 0.9,2.2 1.8,3"
   id="path111" />
<path
   class="st5"
   d="m 248.48142,144.93437 c -1,1.7 -1,3.8 -0.2,5.6"
   id="path113" />
<path
   class="st5"
   d="m 329.18142,182.63437 c -0.7,2.6 0.7,5.2 3.3,6 0,0 0,0 0,0"
   id="path115" />
<path
   class="st5"
   d="m 333.78142,180.03437 c -0.4,1.1 -0.4,2.4 -0.1,3.5 0.4,1.2 1.1,2.2 2,2.9"
   id="path117" />
<path
   class="st5"
   d="m 338.48142,180.33437 c -0.8,1.8 -0.7,3.9 0.2,5.6"
   id="path119" />
<path
   class="st11"
   d="m 265.08142,217.03437 c -0.3,2.1 -0.6,4.5 0.7,6.3 1.3,1.8 4,2.4 6.2,1.7 2.1,-0.8 4,-2.3 5.4,-4.1"
   id="path121" />
<path
   class="st12"
   d="m 544.68142,197.23437 c -16,0.8 -37.6,-0.2 -50.7,-7.4 -14.2,-7.8 -25.6,-21.9 -27.4,-38 -1,-9.1 0.9,-18.1 3.4,-27 1.6,-5.6 3.4,-11.1 4.9,-16.6 4,-14.400003 5.4,-31.300003 -4.1,-42.800003 -3.4,-3.9 -7.6,-7.1 -12.2,-9.4 -18.1,-9.7 -45.2,-10.8 -57.9,5.2 h -0.1 c 0.5,-1 1.1,-1.9 1.7,-2.8 8.5,-13 23.5,-20.2 39.1,-22 16.9,-1.9 33.8,2.4 49.6,8.6 11,4.3 23.1,11.6 23.8,23.4 0.7,11.8 -10.4,20.4 -18,29.5 -9,10.900003 -13.9,24.500003 -14,38.700003 -0.2,9.9 2.1,19.6 6.6,28.4 9.5,18.2 28.9,30.5 49.2,32.2 0,0 0.1,0 0.1,0 2,0 4,0.1 6,0 z"
   id="path123" />
<path
   class="st5"
   d="m 402.28142,58.434367 c -0.6,0.9 -1.1,1.8 -1.7,2.8 v 0 c 0,0 -0.1,0 -0.1,0 v 0 h -0.1 c -0.4,-0.1 -0.7,-0.1 -1.1,-0.1 0.1,-0.1 0.3,-0.3 0.4,-0.4 l 0.3,-0.3 c 0.8,-0.7 1.5,-1.4 2.3,-2 z"
   id="path125" />
<path
   class="st7"
   d="m 437.38142,145.13437 c -3.2,5.6 -7.2,10.8 -11.9,15.2 -10.7,10.3 -14.8,37.5 -7.5,48.6 -1,-1.3 -1.9,-2.6 -2.6,-4.1 -1.2,-2.3 -2.1,-4.6 -2.8,-7.1 -1,-3.2 -1.6,-6.5 -2,-9.8 v 0 c -4.4,-16.5 -7.2,-40.4 -4.6,-58 0,0 0,0 0,-0.1 0.3,-2.1 0.7,-4.1 1.2,-6.1 1.9,-7.3 4.5,-14.4 6.2,-21.7 1.7,-7.300003 2.7,-15.000003 1,-22.400003 -0.1,-0.6 -0.3,-1.2 -0.5,-1.8 -0.1,-0.3 -0.2,-0.6 -0.3,-0.9 -0.2,-0.6 -0.4,-1.1 -0.6,-1.6 -0.1,-0.4 -0.3,-0.7 -0.5,-1.1 -0.3,-0.7 -0.7,-1.4 -1.1,-2.1 -0.2,-0.3 -0.4,-0.7 -0.6,-1 -0.2,-0.3 -0.6,-0.9 -0.9,-1.4 v 0 c -0.3,-0.4 -0.6,-0.8 -0.9,-1.2 -0.2,-0.4 -0.5,-0.7 -0.8,-1 -0.1,-0.1 -0.2,-0.3 -0.3,-0.4 -0.3,-0.3 -0.5,-0.6 -0.8,-0.9 -0.3,-0.3 -0.6,-0.6 -0.9,-0.9 l -0.3,-0.3 c -0.3,-0.3 -0.6,-0.6 -1,-0.8 -0.4,-0.2 -0.8,-0.6 -1.1,-0.9 l -1.2,-0.8 c -0.4,-0.3 -0.8,-0.5 -1.2,-0.7 v 0 l -0.6,-0.6 v 0 c 5.4,-0.5 11,-0.9 16.4,-0.1 5.4,0.8 13.3,3.9 16.8,8.2 3.1,3.9 8.9,14.9 9.4,19.9 0.4,3.9 0.9,8 1.2,12.200003 1.1,13.9 0.9,29.1 -7.2,43.7 z"
   id="path127" />
<path
   class="st5"
   d="m 400.58142,61.134367 h 0.1 v 0 c 0,0 0,0 -0.1,0 z"
   id="path129" />
<path
   class="st12"
   d="m 544.68142,197.23437 c -6.4,2.7 -28.3,4.2 -35.3,4.2 -8.3,0.1 -16.7,-0.6 -24.9,-1.9 -8.4,-1.3 -16.9,-3.5 -23.8,-8.6 -7.4,-5.5 -12.1,-13.9 -15.7,-22.4 -3.2,-7.6 -5.8,-15.5 -7.6,-23.5 8.1,-14.6 8.3,-29.8 7.2,-43.7 -0.4,-4.200003 -0.8,-8.300003 -1.2,-12.200003 -0.5,-5 -6.2,-16 -9.4,-19.9 -3.5,-4.3 -11.3,-7.3 -16.8,-8.2 -5.5,-0.9 -10.9,-0.4 -16.4,0.1 12.7,-16 39.8,-14.9 57.9,-5.2 4.6,2.3 8.8,5.5 12.2,9.4 9.5,11.5 8.1,28.4 4.1,42.800003 -1.5,5.5 -3.3,11 -4.9,16.6 -2.6,8.9 -4.5,17.9 -3.4,27 1.9,16.1 13.2,30.2 27.4,38 13,7.3 34.6,8.3 50.6,7.5 z"
   id="path131" />
<path
   class="st13"
   d="m 394.18142,437.03437 c -1.8,0.6 -3.4,-3.4 -6.5,-3.2 -3.1,0.2 -6,4.1 -6.8,7.9 -1.5,7.2 5.1,11.9 2.9,15.2 -1.5,2.2 -5.8,1.8 -9.7,1.4 h -0.2 c 0,1 -0.1,2 -0.6,2.9 -1,2.3 -3.4,3.6 -5.6,4.8 -3.2,1.8 -6.7,3.6 -10.4,3.2 -5.3,-0.5 -9.1,-5.7 -10,-10.9 -0.3,-2 -0.4,-4.1 -0.1,-6.1 -4.2,-0.1 -8.5,0.7 -11.7,3.2 -0.9,0.7 -1.7,1.6 -2.2,2.6 0.1,0.7 0.3,1.3 0.5,2 0.9,4.3 1.3,8.9 -0.5,12.9 -2.8,6.4 -10.9,9.5 -17.7,7.7 -6.6,-1.8 -11.6,-7.5 -13.9,-13.9 -6.3,-1.5 -10.5,-3.1 -12,-1.1 -1.4,1.8 0.8,4.8 -0.7,6.1 -0.8,0.5 -1.9,0.6 -2.8,0.3 -0.8,-0.2 -1.7,-0.5 -2.4,-0.9 v 0 c -0.9,-0.4 -1.8,-0.8 -2.7,-1.2 l -1.1,-0.5 c -1,-0.5 -2.1,-0.9 -3.1,-1.3 -1.6,-0.6 -3.2,-1.2 -4.8,-1.7 1.5,2.4 3.6,4.7 4.4,7.3 0.3,0.9 0.4,1.8 0.4,2.7 -0.1,0.9 -0.3,1.8 -0.8,2.6 -1.7,2.6 -4.5,4.2 -7.6,4.4 -2.5,0.1 -5.1,-0.4 -7.4,-1.3 -1.3,-0.5 -2.6,-1.1 -4,-1.6 -2.1,-0.8 -4,-1.9 -5.7,-3.3 0,0 -0.1,0 -0.1,-0.1 -1.7,-1.5 -2.6,-3.7 -2.4,-6 0.4,-2.3 2.4,-4 4,-5.9 1.1,-1.3 2.1,-2.8 2.7,-4.5 -4,-1.3 -8.3,-1.9 -12.5,-1.9 -2.6,0 -5.2,0.4 -7.7,1.2 0.2,0.6 0.4,1.1 0.6,1.7 1.3,3.6 2,7.8 0.2,11.2 -2.6,4.9 -9.2,6 -14.8,5.8 -4.8,-0.2 -9.9,-0.9 -13.7,-3.9 -5,-4 -6.2,-11.1 -5,-17.5 -0.5,-0.3 -1,-0.6 -1.5,-1 -2.2,-1.6 -4.8,-2.6 -7.6,-2.9 -3,-0.2 -6.1,0.5 -6.7,1.5 0.5,0.6 1,1.1 1.4,1.7 0.9,1.1 1.5,2.4 1.7,3.8 0.1,1.4 -0.2,2.9 -1,4.1 -0.6,1 -1.4,1.8 -2.3,2.5 -2.2,1.4 -4.6,2.3 -7.2,2.6 -5.7,1 -11.8,1 -17.2,-1.3 -5.4,-2.3 -9.9,-7.1 -10.7,-12.8 -0.3,-1.9 -0.2,-3.9 0.3,-5.8 -1.2,-1.1 -2.6,-2 -4.2,-2.3 -6.4,-1.8 -11.2,2 -14.1,-0.7 -2.7,-2.6 -1,-8.4 -0.4,-10.5 4.4,-14.3 17.8,-22.3 34.6,-35 20.1,-15.2 15.9,-15.2 27,-22.4 8.5,-5.4 17.6,-9.8 27.2,-12.9 9,-3 18.3,-5.1 27.7,-6.2 h 0.3 c 5,1.4 10.1,2.2 15.2,2.4 2.2,0.1 4.4,0 6.6,-0.2 h 0.5 c 6.3,-0.6 12.5,-2.2 18.3,-4.8 0.3,-0.1 0.6,-0.2 0.8,-0.4 8.1,2.1 16.1,4.8 23.8,8.1 5.9,2.6 11.5,5.5 17,8.8 v 0 c 0.2,0.1 0.4,0.2 0.6,0.4 1.9,1.1 3.5,2.2 4.9,3.2 0,0 0,0 0.1,0 12.7,8.7 11.7,12.8 30,24.2 4.2,2.6 8.1,4.8 11.6,6.9 3.7,2 7.2,4.4 10.4,7.2 2.9,2.4 4.9,5.7 5.8,9.4 1.6,4.8 0.8,11.4 -1.4,12.1 z"
   id="path133" />
<path
   class="st13"
   d="m 186.98142,454.73437 c -1.5,-1.4 -2.7,-3.2 -3.5,-5.1 -1.2,-3.9 1.2,-7.9 3.6,-11.3 l 12.1,-17.5"
   id="path135" />
<path
   class="st13"
   d="m 152.08142,449.43437 c 1.2,-5 4.7,-9.7 8.2,-13.6 7.4,-8.2 15.9,-15.4 25.2,-21.4"
   id="path137" />
<path
   class="st13"
   d="m 245.58142,417.43437 c 1.4,12 -13.4,21 -12.8,33.1 0.2,3.2 1.5,6.2 2.6,9.3"
   id="path139" />
<path
   class="st13"
   d="m 219.38142,412.23437 c 2.3,7.2 -0.5,15.1 -4.3,21.7 -3.8,6.6 -8.8,12.5 -11.2,19.7 -0.4,1.1 -0.8,2.3 -1,3.5"
   id="path141" />
<path
   class="st13"
   d="m 271.98142,466.33437 c -0.4,-0.6 -0.8,-1.3 -1.1,-2 -1.9,-4.3 -1,-9.4 0,-14 l 7,-32.8"
   id="path143" />
<path
   class="st13"
   d="m 254.08142,442.63437 c 3.5,5.3 4.1,12.1 1.6,18"
   id="path145" />
<path
   class="st13"
   d="m 317.38142,417.13437 c 2.9,6.9 5.8,13.8 8.6,20.6 2.8,6.6 5.5,13.3 7.2,20.2"
   id="path147" />
<path
   class="st13"
   d="m 301.48142,445.33437 c -1.7,6.8 -2.2,14.1 -0.1,20.7 0.1,0.2 0.1,0.3 0.2,0.5"
   id="path149" />
<path
   class="st13"
   d="m 355.18142,423.03437 15.8,27.5 c 1.4,2.4 2.8,5.1 2.8,7.7"
   id="path151" />
<path
   class="st13"
   d="m 349.18142,442.63437 c -0.9,3.1 -1.6,6.3 -2.1,9.5"
   id="path153" />
<polygon
   class="st14"
   points="49,239.7 57,236.5 58.9,228 64.4,234.7 73.1,233.9 68.4,241.2 71.8,249.2 63.5,247 56.9,252.7 56.4,244.1 "
   id="polygon155"
   transform="translate(-0.01858046,-123.96563)" />
<polygon
   class="st14"
   points="132.7,201.7 141.4,202 146.5,195 148.9,203.3 157.1,206 150,210.9 149.9,219.5 143.1,214.2 134.9,216.9 137.8,208.7 "
   id="polygon157"
   transform="translate(-0.01858046,-123.96563)" />
<polygon
   class="st14"
   points="13.1,286.2 17.2,293.8 25.8,294.8 19.9,301 21.6,309.5 13.8,305.7 6.3,310 7.5,301.5 1.1,295.6 9.6,294.1 "
   id="polygon159"
   transform="translate(-0.01858046,-123.96563)" />
<polygon
   class="st15"
   points="42.5,273.1 46.8,272 48.3,267.9 50.7,271.6 55.1,271.8 52.2,275.2 53.4,279.5 49.3,277.8 45.6,280.2 45.9,275.8 "
   id="polygon161"
   transform="translate(-0.01858046,-123.96563)" />
<polygon
   class="st15"
   points="112.3,251.3 116.7,251.3 119.2,247.6 120.6,251.8 124.9,253.1 121.3,255.7 121.5,260.1 117.9,257.5 113.7,259 115,254.8 "
   id="polygon163"
   transform="translate(-0.01858046,-123.96563)" />
<polygon
   class="st15"
   points="31.3,210.1 35.7,210 38.2,206.4 39.6,210.6 43.8,211.8 40.2,214.4 40.4,218.8 36.8,216.3 32.7,217.8 34,213.6 "
   id="polygon165"
   transform="translate(-0.01858046,-123.96563)" />
<path
   class="st6"
   d="m 261.68142,587.43437 c 0,0 -0.1,0 -0.1,0"
   id="path167" />
<line
   class="st6"
   x1="267.88141"
   y1="588.93439"
   x2="267.88141"
   y2="588.93439"
   id="line169" />
<path
   class="st16"
   d="m 281.18142,293.33437 h -20.1 c 0.3,-2 0.6,-4.5 0.9,-7.3 h 18.7 c 0.2,1.7 0.4,4.4 0.5,7.3 z"
   id="path171" />
<path
   class="st16"
   d="m 282.18142,307.53437 h -23.7 c 0.3,-1.4 0.6,-3.5 1.1,-6.2 0.1,-0.4 0.1,-0.8 0.2,-1.1 h 21.7 c 0,0.4 0.1,0.8 0.1,1.2 v 0 c 0.1,0.9 0.1,1.7 0.2,2.5 0,0.1 0,0.2 0,0.2 0.1,1 0.2,2 0.3,3 0.1,0.2 0.1,0.3 0.1,0.4 z"
   id="path173" />
<path
   class="st16"
   d="m 284.58142,322.33437 h -28.5 c 0.4,-2.5 0.8,-4.9 1.2,-7.4 h 26 c 0.2,1 0.3,2.1 0.5,3.1 0.1,0.6 0.2,1.2 0.3,1.8 0.2,0.8 0.3,1.6 0.5,2.5 z"
   id="path175" />
<path
   class="st16"
   d="m 286.88142,334.03437 c 0.2,1.2 0.5,2.5 0.7,3.9 h -34 l 0.6,-3.9 c -1.6,-0.1 -3.2,-0.1 -4.9,0.1 0,-0.1 0.1,-0.2 0.1,-0.3 1.7,-0.2 3.4,-0.6 5,-1.2 0.1,-0.7 0.2,-1.4 0.4,-2.1 h 31.5 c 0.1,0.8 0.3,1.7 0.5,2.6 1.4,0.4 2.8,0.6 4.3,0.7 0,0.2 0,0.4 0.1,0.6 -1.5,-0.2 -2.9,-0.3 -4.3,-0.4 z"
   id="path177" />
<path
   class="st16"
   d="m 290.28142,353.13437 h -39.2 c 0.4,-2.4 0.8,-4.9 1.2,-7.3 h 36.7 c 0.4,2.3 0.8,4.8 1.3,7.3 z"
   id="path179" />
<circle
   class="st17"
   cx="212.48141"
   cy="386.53436"
   r="6.5"
   id="circle181" />
<circle
   class="st17"
   cx="260.38141"
   cy="380.13437"
   r="6.5"
   id="circle183" />
<circle
   class="st17"
   cx="295.08142"
   cy="405.73438"
   r="6.5"
   id="circle185" />
<circle
   class="st17"
   cx="309.08142"
   cy="373.63437"
   r="6.5"
   id="circle187" />
<circle
   class="st17"
   cx="288.58142"
   cy="449.43439"
   r="6.5"
   id="circle189" />
<circle
   class="st17"
   cx="225.48141"
   cy="458.73438"
   r="6.5"
   id="circle191" />
<circle
   class="st17"
   cx="168.88141"
   cy="412.23438"
   r="6.5"
   id="circle193" />
<circle
   transform="rotate(-85.935006)"
   class="st17"
   cx="-400.10614"
   cy="287.65851"
   id="ellipse195"
   r="6.5001025" />
<circle
   class="st17"
   cx="338.2814"
   cy="414.33435"
   r="6.5"
   id="circle197" />
<path
   class="st1"
   d="m 267.18142,588.63437 c -0.1,0.4 -0.5,0.7 -0.6,1.1 -1.2,-1.1 -2.1,-0.9 -3.5,-1 -0.3,0 -0.7,0.1 -0.9,0.3 0.1,-0.5 0.2,-1 0.3,-1.4 0.3,-0.1 0.7,-0.2 1,-0.2 1.4,-0.1 2.7,0.4 3.7,1.2 z"
   id="path199" />
<path
   class="st1"
   d="m 283.38142,585.93437 c 0.1,0.5 0.2,1 0.3,1.4 -1.6,-0.5 -2.3,0.1 -3.6,0.6 -0.4,0.1 -0.5,0.3 -0.7,0.7 -0.1,-0.5 -0.3,-0.9 -0.4,-1.4 0.2,-0.3 0.5,-0.5 0.8,-0.7 1.1,-0.6 2.4,-0.8 3.6,-0.6 z"
   id="path201" />
<path
   class="st17"
   d="m 390.28142,415.33437 c -1.3,3.4 -5.1,5 -8.4,3.7 -3.4,-1.3 -5,-5.1 -3.7,-8.4 0.4,-1 1,-1.8 1.7,-2.5 3.6,2 7.1,4.5 10.4,7.2 z"
   id="path203" />
<path
   class="st17"
   d="m 213.38142,436.43437 c -3.5,-0.8 -5.7,-4.3 -4.9,-7.8 0.6,-2.6 2.7,-4.6 5.4,-5 1.8,-0.3 3.7,0.3 5.1,1.5 -1.5,3.9 -3.3,7.7 -5.6,11.3 z"
   id="path205" />
</svg>
