<?xml version="1.0" encoding="utf-8"?>
<!-- Generator: Adobe Illustrator 26.3.1, SVG Export Plug-In . SVG Version: 6.00 Build 0)  -->
<svg version="1.1" id="Warstwa_1" xmlns="http://www.w3.org/2000/svg" xmlns:xlink="http://www.w3.org/1999/xlink" x="0px" y="0px"
	 viewBox="0 0 762 729.5" style="enable-background:new 0 0 762 729.5;" xml:space="preserve">
<style type="text/css">
	.st0{fill:#F8C9DF;stroke:#B2B2B2;stroke-miterlimit:10;}
	.st1{fill:#F8C9DF;}
	.st2{fill:#FEF1E8;stroke:#B2B2B2;stroke-miterlimit:10;}
	.st3{fill:#E4F3F7;stroke:#B2B2B2;stroke-miterlimit:10;}
	.st4{fill:#EDEDED;stroke:#B2B2B2;stroke-miterlimit:10;}
	.st5{fill:none;stroke:#706F6F;stroke-miterlimit:10;}
	.st6{fill:none;stroke:#B2B2B2;stroke-miterlimit:10;}
	.st7{fill:#FCF29C;stroke:#B2B2B2;stroke-miterlimit:10;}
	.st8{fill:#3C3C3B;stroke:#706F6F;stroke-miterlimit:10;}
	.st9{fill:#F6F6F6;stroke:#B2B2B2;stroke-miterlimit:10;}
	.st10{fill:#F8F7D9;stroke:#FFD332;stroke-miterlimit:10;}
	.st11{fill:none;stroke:#9D9D9C;stroke-miterlimit:10;}
	.st12{fill:#ECDF82;stroke:#B2B2B2;stroke-miterlimit:10;}
	.st13{fill:#FFFFFF;stroke:#B2B2B2;stroke-miterlimit:10;}
	.st14{fill:#F6B0A6;stroke:#DADADA;stroke-miterlimit:10;}
	.st15{fill:#9DD8F7;stroke:#DADADA;stroke-miterlimit:10;}
	.st16{fill:#F8C9DF;stroke:#B2B2B2;stroke-width:0.75;stroke-miterlimit:10;}
	.st17{fill:#ADDAD6;stroke:#B2B2B2;stroke-width:0.75;stroke-miterlimit:10;}
</style>
<path class="st0" d="M285.8,725.1c-0.9,0.2-2.2-2-3.4-4c-0.9-1.5-1.6-3-2.3-4.6c0.2-0.1,0.3-0.2,0.5-0.3c1.6-1.1,3.4-1.8,5.3-2.1
	c0.5,1.5,0.8,3.1,0.9,4.7C286.7,719.1,287.1,724.7,285.8,725.1z"/>
<path class="st1" d="M284.7,711c-1.3,0.2-2.6,0.5-3.9,1c-0.8,0.2-1.5,0.6-2.1,1c-0.2-0.6-0.4-1.1-0.6-1.6c0.6-0.4,1.3-0.7,2-0.9
	c1.3-0.5,2.7-0.9,4.1-1C284.4,710,284.6,710.5,284.7,711z"/>
<path class="st2" d="M284.2,709.4c-1.4,0.1-2.8,0.5-4.1,1c-0.7,0.2-1.4,0.5-2,0.9c-0.2-0.5-0.3-1-0.5-1.5c-0.7-2.1-1.8-5.4-3.3-9.4
	c-0.7-1.6-1.3-3.1-1.9-4.6c0.9-4.1,1.9-9.2,3-15.5c0.5,1.6,0.9,3,1.2,4c1,3.4,1.3,4,2.8,9.1C281.5,699.9,283.1,705.4,284.2,709.4z"
	/>
<path class="st2" d="M285.7,714c-1.9,0.3-3.7,1-5.3,2.1c-0.1,0.1-0.3,0.2-0.5,0.3c-0.5-1.2-1-2.3-1.4-3.5c0.7-0.4,1.4-0.8,2.1-1
	c1.2-0.5,2.6-0.8,3.9-1c0.1,0.2,0.1,0.5,0.2,0.7C285.2,712.4,285.5,713.2,285.7,714z"/>
<path class="st2" d="M267.4,714.2c-0.5,1.3-1,2.7-1.5,4c-0.4-0.3-0.9-0.5-1.4-0.6c-1.3-0.5-2.7-0.8-4.1-0.8c0.3-1.5,0.5-2.5,0.7-3.1
	c0.1-0.3,0.1-0.5,0.2-0.8c0.3-0.2,0.7-0.3,1.1-0.3C264.2,712.4,266,713,267.4,714.2z"/>
<path class="st0" d="M265.9,718.2c0,0.1-0.1,0.2-0.1,0.3s-0.1,0.3-0.1,0.4c-1.2,2.7-2.2,5.5-3,8.3c0,0.5-0.2,0.9-0.5,1.2
	c-0.4,0.4-0.9,0.6-1.5,0.5c-1-0.2-1.2-1.8-1.3-2.4c-0.1-0.5-0.1-1.1,0-1.7c0-1,0.2-2.4,0.4-4.2c0.1-1.2,0.3-2.3,0.5-3.3
	c0-0.2,0.1-0.4,0.1-0.7c1.4,0.1,2.8,0.3,4.1,0.8C265,717.8,265.5,718,265.9,718.2z"/>
<path class="st3" d="M263.2,399c0,0,0,0.1,0,0.1c0,0,0,0.1,0,0.3c0,0,0,0.2-0.1,0.8c-0.4,5-0.5,5.3-0.5,5.3
	c-0.2,1.2-0.3,2.4-0.4,3.5c0,0.3-0.1,0.6-0.1,0.9c-0.3,2.9-0.6,5.4-0.9,7.3c-0.1,0.6-0.2,1-0.2,1.5c-0.1,0.9-0.4,2.5-1,5.4
	c0,0.3-0.1,0.7-0.2,1.1c-0.5,2.7-0.9,4.9-1.1,6.2c-0.1,0.6-0.2,1.1-0.3,1.5c-0.2,1.4-0.5,2.8-0.7,4.2c0,0.1,0,0.2,0,0.4
	s-0.1,0.3-0.1,0.5s-0.1,0.6-0.1,0.9c-0.4,2.5-0.8,4.9-1.2,7.4c-0.5,2.8-0.9,5.5-1.4,8.3c-0.1,0.7-0.2,1.4-0.4,2.1
	c-1.6,0.6-3.3,1-5,1.2c-8.8,1-18.5-3.2-24.6-10.3c-8.5-9.9-6.8-22-6.6-24c-0.9,0.2-10.6,1.8-19.6-3.4c0.3-0.1,0.6-0.2,0.9-0.3
	c4.9-1.5,10.5-3.4,19.6-6.4c10.3-3.4,20.6-6.5,30.9-9.9C254.9,402,260.4,399.9,263.2,399z"/>
<path class="st3" d="M270.6,422.5c0,0.4,0,1,0,1.7c-0.1,2.5-0.3,4.9-0.6,7.3c-0.1,0.5-0.1,1-0.2,1.5l0,0c-0.3,2-0.8,3.9-1.3,5.8
	c-0.7,2.5-1.7,5-2.9,7.4c-1.7,3.3-4.1,6.2-7.2,8.3c-1,0.7-2,1.3-3.1,1.7c-0.3,0.1-0.6,0.2-0.9,0.4c0.1-0.7,0.2-1.4,0.4-2.1
	c0.4-2.8,0.9-5.5,1.3-8.3c0.4-2.5,0.8-4.9,1.2-7.4c0-0.3,0.1-0.6,0.1-0.9s0.1-0.3,0.1-0.5s0-0.2,0-0.4c0.2-1.4,0.5-2.8,0.7-4.2
	c0.1-0.3,0.1-0.8,0.3-1.5c0.3-1.4,0.6-3.5,1.1-6.2c0.1-0.4,0.1-0.8,0.2-1.1c0.5-2.9,0.8-4.4,1-5.4c0.1-0.5,0.1-1,0.2-1.5
	c0.3-2,0.6-4.5,0.9-7.3c0-0.3,0.1-0.6,0.1-0.9c0.1-1.2,0.3-2.4,0.4-3.5c0,0,0.1-0.3,0.5-5.3c0.1-0.6,0.1-0.8,0.1-0.8
	c0-0.2,0-0.3,0-0.3c0,0,0-0.1,0-0.1c-2.8,0.9-8.3,3-13.2,4.6c-10.3,3.4-20.6,6.5-30.9,9.9c-9,3-14.6,5-19.6,6.4
	c-0.3,0.1-0.6,0.2-0.9,0.3c-2-1.2-3.8-2.6-5.4-4.2c-0.9-1-1.8-2-2.6-3.1l0,0c-5.6-8-6.7-18.4-2.9-27.5c-2.2,0.3-20.9,2.3-32.7-10.9
	s-22.6-36.8-13.1-45c16.2-14,73.4,11.7,100.3,38.5c5.2,5.2,12.2,12.3,18,21.3c2,3.2,3.8,6.5,5.4,9.9l0.5,1.2l0,0
	c1.3,3.1,2.4,6.4,3.1,9.7c0.2,0.8,0.4,1.6,0.5,2.4l0,0c0.3,1.6,0.5,3.2,0.6,4.9C270.6,419,270.7,420.7,270.6,422.5z"/>
<path class="st3" d="M313.2,449.2c-5.9,5.9-14.4,9.3-22.2,8.7c-1.4-0.1-2.9-0.3-4.3-0.7c-0.2-0.9-0.3-1.8-0.5-2.6
	c-0.4-2-0.7-3.8-1-5.4l-0.6-2.9c-0.2-0.8-0.3-1.6-0.5-2.5c-0.1-0.6-0.2-1.2-0.3-1.8c-0.2-1-0.4-2-0.5-3.1c-0.4-2.4-0.7-4.8-1-7.4
	c0-0.1,0-0.2,0-0.4c-0.1-1-0.2-2-0.3-3c0-0.1,0-0.1,0-0.2c-0.1-0.8-0.1-1.7-0.2-2.5l0,0c0-0.4-0.1-0.8-0.1-1.2s-0.1-0.9-0.1-1.3
	c0-0.1,0-0.3,0-0.5c-0.1-1.2-0.1-2.4-0.2-3.6c0-0.5,0-1,0-1.5c-0.1-2.9-0.3-5.6-0.5-7.3c-0.1-1.2-0.1-2-0.1-2c0-3.3-0.3-5.9-0.2-8.2
	c5.2,6.6,8.3,14.7,9.2,16.1c0.2,0.2,0.7,1.2,1.6,2.4c1.1,1.7,2.2,2.8,12.3,17c0.9,1.3,1.9,2.7,3,4.2s2.2,3.1,3.2,4.5l0,0
	C311,446.1,312.1,447.8,313.2,449.2z"/>
<path class="st3" d="M384.5,374.5c-11.8,13.2-30.5,11.2-32.7,10.9c4.4,10.6,2.2,22.7-5.5,30.5c-10,10.2-23.9,7.9-25.1,7.6
	c0.3,1.8,1.6,11.9-4.4,21.1c-0.7,1-1.4,2-2.2,2.9c-0.5,0.6-1,1.1-1.6,1.7c-1-1.5-2.2-3.1-3.6-5l0,0c-1-1.3-2-2.8-3.2-4.5
	s-2.1-2.9-3-4.2c-10.1-14.2-11.2-15.4-12.3-17c-0.9-1.2-1.5-2.2-1.6-2.4c-0.9-1.4-4-9.6-9.2-16.1c0,2.2,0.2,4.9,0.2,8.2
	c0,0,0,0.8,0.1,2c0.1,1.7,0.3,4.5,0.5,7.3c0,0.5,0,1,0,1.5c0,1.2,0.1,2.4,0.2,3.6c0,0.1,0,0.3,0,0.5c0,0.4,0,0.9,0.1,1.3
	s0.1,0.8,0.1,1.2l0,0c0.1,0.9,0.1,1.7,0.2,2.5c0,0.1,0,0.2,0,0.2c0.1,1,0.2,2,0.3,3c0,0.1,0,0.2,0,0.4c0.3,2.5,0.6,5,1,7.4
	c0.2,1,0.3,2.1,0.5,3.1c0.1,0.6,0.2,1.2,0.3,1.8c0.2,0.8,0.3,1.6,0.5,2.5l0.6,2.9c0.3,1.5,0.6,3.4,1,5.4c0.1,0.8,0.3,1.7,0.5,2.6
	c-0.9-0.2-1.7-0.5-2.5-0.9c-1.1-0.5-2.1-1-3.1-1.7c-3-2.1-5.5-5-7.2-8.3c-1.2-2.3-2.2-4.8-2.9-7.4c-0.6-1.9-1-3.8-1.3-5.8l0,0
	c-0.1-0.5-0.2-1-0.2-1.5c-0.3-2.4-0.5-4.9-0.6-7.3c0-0.7,0-1.3,0-1.7c0-1.7,0-3.4,0.2-5.1c0.1-1.6,0.3-3.3,0.6-4.9l0,0
	c0.1-0.8,0.3-1.6,0.5-2.4c0.6-2.9,1.5-5.7,2.6-8.5c0.2-0.7,0.5-1.3,0.8-2c1.7-3.9,3.8-7.7,6.2-11.3c4.1-6,8.8-11.7,13.9-16.9
	c1.2-1.2,2.3-2.4,3.4-3.5c3.2-3.1,6.5-6.1,10-8.9c3.5-2.8,7.3-5.5,11.2-8.1c26.6-17.7,61-30.4,75.9-23.5c1.2,0.5,2.2,1.2,3.2,2
	C407.1,337.7,396.2,361.4,384.5,374.5z"/>
<path class="st3" d="M254.2,458l-0.6,3.9c-0.4,2.6-0.8,5.2-1.3,7.9c-0.4,2.4-0.8,4.9-1.2,7.3c-0.3,2.1-0.7,4.3-1.1,6.4
	c-9.4,1.1-18.7,3.2-27.7,6.1c-0.5-5.3,0-12.7,4.7-19.4c5.3-7.5,14.1-11.4,22.3-12.1C250.9,457.9,252.6,457.9,254.2,458z"/>
<path class="st4" d="M268.9,471.3c0,1.9-0.2,3.9-0.7,5.8c-0.6,3-1.5,5.9-2.7,8.8l-0.6,1.4c-3.8,8.7-8.6,17-14.2,24.6
	c-6.8,9.1-19.1,22.5-30.7,28.5c-0.9,0.5-1.9,0.9-2.8,1.3c-4.8,2-9.4,2.6-13.2,0.7c-10.8-5.3-16.5-30.5-4.2-41.5
	c8.6-7.7,21.9-4.7,23.7-4.2c-0.7-2.3-1.1-4.6-1.3-6.9c9-3,18.3-5,27.7-6.1c0.3-2.1,0.7-4.3,1.1-6.4c0.4-2.4,0.8-4.9,1.2-7.3
	c0.4-2.6,0.9-5.2,1.3-7.9l0.6-3.9c4.5,0.3,8.5,1.6,11.1,3.9c0.3,0.2,0.6,0.5,0.8,0.8c1.7,2,2.7,4.5,2.8,7.1
	C268.9,470.2,268.9,470.8,268.9,471.3z"/>
<path class="st3" d="M315.6,488.6c-7.7-3.3-15.7-6-23.8-8.1c-0.3,0.1-0.5,0.2-0.8,0.4c-0.2-1.3-0.5-2.6-0.7-3.8
	c-0.5-2.5-0.9-5-1.3-7.3c-0.5-2.7-1-5.4-1.4-7.9c-0.2-1.3-0.5-2.6-0.7-3.9c1.4,0.1,2.8,0.2,4.2,0.5c7.4,1.3,15,5.1,19.8,11.8
	C314.5,475.6,316.2,482.1,315.6,488.6z"/>
<path class="st4" d="M333.7,542.3c-13.5,6.6-36.4-16.8-46.6-30.5c-5.7-7.7-10.5-16.1-14.3-24.9c-0.2-0.4-0.4-0.9-0.5-1.3
	c-1.1-2.8-2-5.6-2.6-8.6c-0.4-1.9-0.7-3.8-0.7-5.8c0-0.5,0-1,0.1-1.6c0.1-2.6,1.1-5.1,2.8-7.1c0.2-0.3,0.5-0.5,0.8-0.8
	c3.1-2.8,8.5-4.1,14.3-3.9c0.2,1.2,0.5,2.5,0.7,3.9c0.4,2.5,0.9,5.1,1.4,7.9c0.4,2.4,0.9,4.9,1.3,7.3c0.2,1.3,0.5,2.6,0.7,3.8
	c0.3-0.1,0.6-0.2,0.8-0.4c8.1,2.1,16.1,4.8,23.8,8.1c-0.2,2.7-0.6,5.3-1.4,7.9c1.5-0.4,10.5-2.4,18.5,0.9l0,0
	c1.9,0.8,3.7,1.9,5.3,3.3c0.1,0.1,0.2,0.2,0.3,0.3c0,0,0,0,0.1,0C350,512.3,344.4,537.1,333.7,542.3z"/>
<path class="st5" d="M538.7,321.1c2.1,0.1,4.1,0.1,6,0.2C542.7,321.3,540.7,321.2,538.7,321.1z"/>
<path class="st2" d="M402.4,208.6c0.6-2.5,0.8-5.1,0.6-7.7c-0.6-6.7-1.4-12.1-2.5-15.4l0,0l-0.1,0.1c0-0.1,0.1-0.1,0.1-0.2
	c0,0,0,0,0-0.1h-0.1l0,0l-0.1,0.1l0,0c-60.5,48.2-65,47.2-65,47.2c-41.9,23.1-90.7,23.1-118,19.5l-2.8,0.2
	c-11.5,31.6-8,60.5-3.2,70.2c4.9,10,14.8,17.5,14.8,17.5c10.1,7.2,12.4,7.8,21.9,12.9c9.5,5.1,14.2,8,20.1,10.7
	c1.5,0.7,2.9,1.2,2.9,1.2s2.9,1.2,6.7,2.4c0.4,0.1,0.7,0.2,0.7,0.2l2.4,0.8c4.5,1.4,8.8,2.4,13,3.2c40.1,7.8,66.7-6.9,66.7-6.9
	c18.1-10.3,28.4-25.9,33.9-37.1c0.9-1.8,1.6-3.4,2.3-4.9l-0.1-0.2l0,0c-2.1-3.1-4.1-6.3-5.9-9.6c-2.5-4.6-4.6-9.4-6.3-14.4
	c-3.9-11.5-5.7-23.6-5.3-35.7C379.4,244,398.6,225.7,402.4,208.6z M251.4,288.4c-2.8,5.5-8,8.4-11.6,6.5s-4.4-7.8-1.6-13.2
	s8-8.4,11.6-6.5S254.2,282.9,251.4,288.4L251.4,288.4z M329.2,317.1c2.8-5.5,8-8.4,11.7-6.5s4.4,7.8,1.6,13.2s-8,8.4-11.7,6.5
	S326.5,322.6,329.2,317.1L329.2,317.1z"/>
<path class="st6" d="M118.3,418.2c-0.4-0.1-0.8-0.2-1.1-0.1c-0.8,0.2-1.4,0.7-1.8,1.4L94.4,347l0.6-0.5c0.7-0.6,1.6-0.8,2.4-0.7
	L118.3,418.2z"/>
<path class="st1" d="M333,358.3c-1.7-3.1-5.7-5.9-10.7-7c-1.3-0.3-2.6-0.4-3.9-0.4c-3.2-0.2-6.3,0.8-8.9,2.7
	c-1.1,0.9-1.9,2.2-2.3,3.6c-0.1,0.6-0.2,1.2-0.1,1.9c0.5,4.2,5.1,8.2,11.5,9.5c0.2,0,0.3,0.1,0.5,0.1c3.2,0.7,6.5,0.4,9.6-0.8
	c2.6-1,4.4-2.9,4.9-5.2C334.1,361.2,333.8,359.6,333,358.3z M236.2,315.4c-4.2-3.1-9-4.3-12.5-3.4c-1.4,0.4-2.7,1.2-3.6,2.3
	c-2.9,3.9-0.4,10.7,5.5,15.1c0.1,0.1,0.3,0.2,0.4,0.3c2.6,2,5.7,3.1,9,3.4c2.8,0.1,5.2-0.7,6.6-2.6c0.9-1.3,1.3-2.8,1.2-4.3
	C242.7,322.7,240.2,318.5,236.2,315.4z"/>
<path class="st5" d="M342.5,323.9c-2.8,5.5-8,8.4-11.7,6.5s-4.4-7.8-1.6-13.3s8-8.4,11.7-6.5S345.3,318.4,342.5,323.9z"/>
<path class="st5" d="M400.5,185.3L400.5,185.3L400.5,185.3C400.5,185.2,400.5,185.3,400.5,185.3z"/>
<path class="st5" d="M400.6,185.4l-0.1,0.1C400.4,185.5,400.5,185.4,400.6,185.4C400.6,185.3,400.5,185.4,400.6,185.4z"/>
<path class="st5" d="M400.5,185.2L400.5,185.2"/>
<path class="st5" d="M400.5,185.2L400.5,185.2"/>
<path class="st5" d="M400.4,185.2C400.5,185.2,400.5,185.2,400.4,185.2"/>
<path class="st5" d="M400.6,185c0,0.1-0.1,0.1-0.1,0.1l0,0l0,0l0,0l0,0l0,0"/>
<path class="st5" d="M386.7,199.3L386.7,199.3"/>
<path class="st7" d="M400.4,185.2L400.4,185.2L400.4,185.2c-60.6,48.2-65.1,47.3-65.1,47.3c-41.9,23.1-90.7,23.1-118,19.5
	c8.5-0.9,16.9-2.5,25.1-4.7c3-0.7,6-1.7,8.8-3c7-3.3,12.5-9.1,18.2-14.4c2.1-1.9,4.2-3.8,6.5-5.5l0.1-0.1
	c25.7-20.2,58.7-28.4,91.1-34.4c5-0.9,9-1.7,14.2-2.5c5.5-0.9,11.9-1.3,17.6-1.8l0.9-0.1l-0.2-0.1L400.4,185.2z"/>
<path class="st7" d="M400.5,185.2L400.5,185.2L400.5,185.2l-0.8,0.2c-16.1-8.4-33.9-12.8-52.1-12.6c-6.5,0-12.9,0.7-19.3,1.3
	c-18.4,1.8-37.8,4.1-52.8,14.9c-15.8,11.5-24.3,30.8-39.7,42.8c-12.1,9.3-26.4,11.7-39.6,17.7l-0.6,0.2l0,0l-0.5,0.1
	c0.3-9.1,15.4-19.9,20.3-34.4c13-38,38.8-92.5,95-90.9c54.8,1.6,87.8,56.5,90.1,60.6l0,0L400.5,185.2z"/>
<path class="st5" d="M400.5,185.3L400.5,185.3L400.5,185.3"/>
<path class="st7" d="M400.5,185.2L400.5,185.2l-0.8,0.2c-16.1-8.4-33.9-12.8-52.1-12.6c-6.5,0-12.9,0.7-19.3,1.3
	c-18.4,1.8-37.8,4.1-52.8,14.9c-15.8,11.5-24.3,30.8-39.7,42.8c-12.1,9.3-26.4,11.7-39.6,17.7l-0.5,0.2c0,0,0,0-0.1,0l0,0
	c-1.4-0.8,10.6-8.2,25.7-22.5c29.8-28.1,22.9-45.5,43.6-61.1c31.5-23.8,80.5-8.4,91-5.1C372.2,166.3,387.3,174.4,400.5,185.2
	L400.5,185.2z"/>
<path class="st5" d="M400.6,185.3L400.6,185.3L400.6,185.3L400.6,185.3L400.6,185.3z"/>
<path class="st5" d="M400.6,185.1h-0.1l0,0"/>
<path class="st8" d="M342.5,323.9c-2.8,5.5-8,8.4-11.7,6.5s-4.4-7.8-1.6-13.3s8-8.4,11.7-6.5S345.3,318.4,342.5,323.9z"/>
<path class="st8" d="M251.5,288.4c-2.8,5.5-8,8.4-11.6,6.5s-4.4-7.8-1.6-13.3s8-8.4,11.6-6.5S254.2,282.9,251.5,288.4z"/>
<path class="st5" d="M280.2,355l-0.4-0.1"/>
<path class="st9" d="M291.2,482c-5.8,2.6-11.9,4.2-18.2,4.9h-0.3c-2.6,0.2-5.1,0.3-7.7,0.3c-5.1-0.1-10.2-0.9-15.2-2.3
	c0.1-0.5,0.1-0.9,0.2-1.4c0.3-2.1,0.7-4.3,1.1-6.4c0.4-2.4,0.8-4.9,1.2-7.3c0.4-2.6,0.9-5.2,1.3-7.9l0.6-3.9
	c0.1-0.5,0.2-0.9,0.2-1.4c0.1-0.7,0.2-1.4,0.4-2.1c0.4-2.8,0.9-5.5,1.4-8.3c0.4-2.5,0.8-4.9,1.2-7.4c0-0.3,0.1-0.6,0.1-0.9
	s0.1-0.3,0.1-0.5s0-0.2,0-0.4c0.2-1.4,0.5-2.8,0.7-4.2c0.1-0.3,0.1-0.8,0.3-1.5c0.3-1.4,0.6-3.5,1.1-6.2c0.1-0.4,0.1-0.8,0.2-1.1
	c0.5-2.9,0.8-4.4,1-5.4c0.1-0.5,0.1-1,0.2-1.5c0.3-2,0.6-4.5,0.9-7.3c0-0.3,0.1-0.6,0.1-0.9c0.1-1.2,0.3-2.4,0.4-3.5
	c0,0,0.1-0.3,0.5-5.3c0.1-0.6,0.1-0.8,0.1-0.8c0-0.2,0-0.3,0-0.3c0,0,0-0.1,0-0.1l0,0l2.4,0.1l8.1,0.4l6.6,0.3l0,0
	c0,2.2,0.2,4.9,0.2,8.2c0,0,0,0.8,0.1,2c0.1,1.7,0.3,4.5,0.5,7.3c0,0.5,0,1,0,1.5c0,1.2,0.1,2.4,0.2,3.6c0,0.1,0,0.3,0,0.5
	c0,0.4,0,0.9,0.1,1.3s0.1,0.8,0.1,1.2l0,0c0.1,0.9,0.1,1.7,0.2,2.5c0,0.1,0,0.2,0,0.2c0.1,1,0.2,2,0.3,3c0,0.1,0,0.2,0,0.4
	c0.3,2.5,0.6,5,1,7.4c0.2,1,0.3,2.1,0.5,3.1c0.1,0.6,0.2,1.2,0.3,1.8c0.2,0.8,0.3,1.6,0.5,2.5l0.6,2.9c0.3,1.5,0.6,3.4,1,5.4
	c0.1,0.8,0.3,1.7,0.5,2.6c0,0.3,0.1,0.6,0.1,0.9c0.2,1.2,0.5,2.5,0.7,3.9c0.4,2.5,0.9,5.1,1.4,7.9c0.4,2.4,0.9,4.9,1.3,7.3
	c0.2,1.3,0.5,2.6,0.7,3.8C291,481.3,291.1,481.7,291.2,482z"/>
<path class="st2" d="M394,508.9c1,1.4,2,2.8,3,4.2c-3.2-2.2-7.4-5-12.5-8.2l-0.8-0.5c-4.2-2.6-9.2-5.6-15.5-8.8
	c-14.3-7.3-14.3-6.7-22.5-13.1c-3.3-2.6-9.2-6.2-12.1-9.1c-4.9-5-8.5-8.2-12.7-13.7c-2.7-3.5-4.6-6.2-7.6-10.4c-1-1.5-2.2-3.1-3.6-5
	l0,0c-1-1.3-2-2.8-3.2-4.5s-2.1-2.9-3-4.2c-10.1-14.2-11.2-15.4-12.3-17c-0.9-1.2-1.5-2.2-1.6-2.4c-0.9-1.4-4-9.6-9.2-16.1
	c-2.3,1.1-4.9,1.7-7.4,1.7c-2.3,0-4.6-0.4-6.8-1.2l0,0c-1-0.4-2-0.8-3-1.3c-2.8,0.9-8.3,3-13.2,4.6c-10.3,3.4-20.6,6.5-30.9,9.9
	c-9,3-14.6,5-19.6,6.4c-0.3,0.1-0.6,0.2-0.9,0.3c-3.1,0.9-6.2,1.7-9.4,2.3c-8.7,1.7-17.6,2.4-26.5,2.1l-41.8,3.1l0,0v-0.1l0,0
	c0.8-1.4,1-3.1,0.7-4.7c0-0.2-0.1-0.5-0.2-0.7c-0.1-0.3-0.2-0.6-0.3-0.8c0,0,0-0.1-0.1-0.1c-0.1-0.3-0.2-0.5-0.4-0.7
	c-0.1-0.1-0.2-0.3-0.2-0.4c-0.2-0.2-0.4-0.5-0.6-0.7c-0.3-0.3-0.5-0.5-0.8-0.7l0,0l0,0l42.2-2.1c8.6,0.1,17.2-0.8,25.6-2.8
	c0.7-0.2,1.5-0.4,2.2-0.6c0.4-0.1,0.9-0.2,1.5-0.3l0,0c3.6-0.6,11.4-1.4,17.5-3.4c12.6-4.2,8.9-5.5,22.8-10.2
	c7.4-2.5,14.5-5.8,22-7.9c2.4-0.7,5-1.3,7.3-2.1c3.8-1.3,7-3.1,8.6-6.4c0.7-1.7,1.2-3.4,1.5-5.1c0.7-4.3,0.9-8.6,0.7-12.9
	c0,0,2.9,1.2,6.7,2.4c0.4,0.1,0.7,0.2,0.7,0.2c-0.6,2.6-1.6,9.2-1,13.4c0.3,2.5,1.1,5,2.3,7.3c0,0,0.1,0.1,0.1,0.2
	c0.5,0.9,1.3,2,4.5,5.7c2.2,2.5,3.2,3.7,4.8,5.4c5.8,6.1,15.3,23.5,21.5,34.6c0.1,0.1,0.1,0.1,0.1,0.2c2.4,4.2,4.4,7.7,6.1,10.5
	c0.8,1.4,1.5,2.6,2.2,3.7c4.3,6.9,6,8.7,7.4,10.1c4.7,4.5,9.6,8.6,14.7,12.5c2.2,1.8,3.8,3,14.5,10.9s16.1,12,17.7,12.9
	c2,1.2,3.9,2.2,5.6,3.2c5.1,2.6,10.4,4.8,15.9,6.4c3.8,1.2,7.6,2.1,11.5,2.8L394,508.9z"/>
<path class="st2" d="M287.4,590.7c-0.1,1.4-0.5,2.8-1.2,4.1c0,0.4-0.1,0.7-0.1,1.1c-0.3,3.9-0.2,9-1.5,20.3
	c-2.3,19.9-4.5,35.2-5.2,39.6c-1.5,9.8-2.8,17.9-4,24.5c-1.1,6.4-2.1,11.5-3,15.5c-1.7,7.9-3,12-3.7,14.3c-0.3,0.9-0.6,1.8-0.9,2.7
	c-1.4-1.2-3.1-1.8-5-1.7c-0.4,0-0.9,0.1-1.3,0.2c1-4.5,2-9.1,3.1-13.7c1.6-6.7,2.4-10,3.2-14.4c0.1-0.6,0.2-1.2,0.4-1.8
	c0.8-3.9,1.8-9.3,2.7-15.8c0-0.4,0.1-0.7,0.1-1.1c0.4-3,0.8-7,1.5-15.5c0.8-11.2,1.3-19.9,1.5-24.6c0.2-4,1.1-13.2,1.8-21.7
	c0.2-1.8,0.3-3.6,0.4-5.2c0.2-2,0.3-3.9,0.4-5.5c0-0.5,0.1-1,0.1-1.4c0.5,0.5,1.2,1.1,1.9,1.8c0.4,0.3,0.8,0.7,1.1,0.9
	c1.1,1,2.4,1.6,3.8,1.7c0.4,0,0.8-0.1,1.2-0.2c1-0.4,1.6-0.5,2.1-2.5c0.1-0.2,0.1-0.4,0.1-0.6C287.3,591.4,287.4,591,287.4,590.7z"
	/>
<path class="st6" d="M120.9,427.5L120.9,427.5C120.9,427.5,120.9,427.5,120.9,427.5L120.9,427.5z"/>
<path class="st6" d="M127.7,455.1l-1,0.3c-0.6,0.2-1.2-0.2-1.4-0.8l-7.5-25.9c0.4,0.1,0.8,0.2,1.2,0.1c0.7-0.2,1.3-0.6,1.7-1.2
	c0,0,0.1,0,0.1-0.1v0.1l7.5,26.2C128.6,454.3,128.3,454.9,127.7,455.1z"/>
<path class="st5" d="M410,193.6l-8.5-7.9c0.4,0.2,0.8,0.5,1.2,0.7l1.2,0.8l1.1,0.9c0.3,0.3,0.6,0.5,1,0.8l0.3,0.3
	c0.3,0.3,0.6,0.6,0.9,0.9s0.5,0.6,0.8,0.9c0.1,0.1,0.2,0.3,0.3,0.4c0.3,0.3,0.5,0.7,0.8,1C409.4,192.8,409.7,193.2,410,193.6z"/>
<path class="st5" d="M400.5,185.3L400.5,185.3c0-0.1,0-0.1,0.1-0.2"/>
<path class="st7" d="M418,332.9c-8.3-0.3-16.1-4.2-21.5-10.6l0,0c-2.1-3.1-4.1-6.3-5.9-9.6c-2.5-4.6-4.6-9.4-6.3-14.4
	c-3.8-11.5-5.6-23.5-5.3-35.6c0.4-18.8,19.6-37.1,23.5-54.2c0.6-2.5,0.8-5.1,0.6-7.7c-0.6-6.7-1.4-12.1-2.4-15.4l0,0l0,0
	c0.3,0.1,0.5,0.3,0.8,0.4l0,0c0.4,0.2,0.8,0.5,1.2,0.7l1.2,0.8l1.1,0.9c0.3,0.3,0.6,0.5,1,0.8l0.3,0.3c0.3,0.3,0.6,0.6,0.9,0.9
	s0.5,0.6,0.8,0.9c0.1,0.1,0.2,0.3,0.3,0.4c0.3,0.3,0.5,0.7,0.8,1c0.3,0.4,0.6,0.8,0.9,1.2l0,0c0.3,0.4,0.6,0.9,0.9,1.4
	s0.4,0.6,0.6,1c0.4,0.7,0.8,1.4,1.1,2.1c0.2,0.4,0.3,0.7,0.5,1.1c0.2,0.6,0.4,1.1,0.6,1.6c0.1,0.3,0.2,0.6,0.3,0.9
	c0.2,0.6,0.4,1.2,0.5,1.8c1.7,7.4,0.8,15.1-1,22.4s-4.4,14.4-6.2,21.7c-0.5,2-0.9,4.1-1.2,6.1c0,0,0,0,0,0.1
	c-2.6,17.6,0.2,41.5,4.6,58l0,0c0.4,3.3,1,6.6,2,9.8c0.7,2.5,1.6,4.8,2.8,7.1C416.2,330.3,417,331.6,418,332.9z"/>
<path class="st7" d="M399.7,185.5l-0.6,0.2c-5.6,0.5-12.1,0.9-17.6,1.8c-5.2,0.8-9.2,1.6-14.2,2.5c-32.5,6-65.4,14.2-91.1,34.4
	l-0.1,0.1c-2.2,1.7-4.4,3.6-6.5,5.5c-5.7,5.2-11.2,11-18.2,14.4c-2.8,1.3-5.8,2.3-8.8,3c-8.2,2.2-16.7,3.8-25.1,4.7l-2.8,0.2
	c-6.9,0.4-13.7-0.1-19.2-2.3l0.2-0.1l0.5-0.2c13.2-6,27.6-8.4,39.6-17.7c15.4-12,23.9-31.3,39.7-42.8c15-10.9,34.4-13.1,52.8-14.9
	c6.4-0.6,12.9-1.3,19.3-1.3C365.7,172.7,383.6,177,399.7,185.5z"/>
<path class="st5" d="M399.9,185.6l-0.9,0.1l0.6-0.2L399.9,185.6z"/>
<path class="st2" d="M120.9,427.5C120.9,427.5,120.9,427.5,120.9,427.5c-0.4,0.7-1.1,1.2-1.8,1.3c-0.4,0.1-0.8,0-1.2-0.1
	c-1.5-0.5-2.8-2.2-3.3-4.6c-0.4-1.6-0.1-3.2,0.6-4.6c0.4-0.7,1-1.2,1.8-1.4c0.4-0.1,0.8,0,1.1,0.1c0.3,0.1,0.6,0.2,0.8,0.4
	c1.4,1,2.3,2.5,2.5,4.2C121.9,424.4,121.7,426.1,120.9,427.5z"/>
<path class="st2" d="M268.2,651.8c1,4.6,2,8.9,3,12.8c0,0.4-0.1,0.8-0.1,1.1c-0.9,6.6-1.9,12-2.7,15.8c-0.2-0.6-0.3-1.3-0.5-2
	c-1.5-5.6-6.1-17.3-7.1-27.8c-2.3-10.6-4.5-21.6-6.6-33.1c-1.3-7.2-2.3-13.8-3.3-20.7l0,0l9.5,5.2l0.4,0.2
	c0.8,10.9,2.3,21.7,4.3,32.5C265.6,639,266.7,644.7,268.2,651.8z"/>
<path class="st10" d="M114.5,324.7c-0.6,0.8-0.7,1.9-0.3,2.8l8.1,20.1c0.7,1.5,0,3.3-1.5,4c-0.7,0.3-1.4,0.3-2.1,0.1l-20.9-5.8
	l-0.3-0.1c-0.9-0.1-1.8,0.1-2.4,0.7l-0.6,0.5l-16,13.5c-1.3,1.1-3.2,0.9-4.3-0.4c-0.4-0.5-0.7-1.2-0.7-1.8l-1-21.7
	c0-1-0.6-1.9-1.4-2.5l-18.4-11.5c-1.4-0.9-1.9-2.8-1-4.2c0.4-0.6,0.9-1,1.5-1.2l20.3-7.6c1-0.3,1.7-1.1,1.9-2.1l5.3-21
	c0.4-1.6,2-2.7,3.7-2.3c0.7,0.2,1.3,0.5,1.7,1.1l13.5,17c0.6,0.8,1.6,1.2,2.6,1.1l21.6-1.5c1.7-0.1,3.1,1.2,3.3,2.8
	c0,0.7-0.1,1.3-0.5,1.9L114.5,324.7z"/>
<path class="st5" d="M401.4,185.8c-0.3-0.2-0.5-0.3-0.8-0.4l0,0c0-0.1,0.1-0.1,0.1-0.1l0,0l0,0L401.4,185.8z"/>
<path class="st5" d="M239,270.4c-1,2.5,0.3,5.3,2.8,6.2c0,0,0.1,0,0.1,0"/>
<path class="st5" d="M243.8,268.2c-0.5,1.1-0.6,2.4-0.3,3.5c0.3,1.2,0.9,2.2,1.8,3"/>
<path class="st5" d="M248.5,268.9c-1,1.7-1,3.8-0.2,5.6"/>
<path class="st5" d="M329.2,306.6c-0.7,2.6,0.7,5.2,3.3,6c0,0,0,0,0,0"/>
<path class="st5" d="M333.8,304c-0.4,1.1-0.4,2.4-0.1,3.5c0.4,1.2,1.1,2.2,2,2.9"/>
<path class="st5" d="M338.5,304.3c-0.8,1.8-0.7,3.9,0.2,5.6"/>
<path class="st11" d="M265.1,341c-0.3,2.1-0.6,4.5,0.7,6.3s4,2.4,6.2,1.7c2.1-0.8,4-2.3,5.4-4.1"/>
<path class="st12" d="M544.7,321.2c-16,0.8-37.6-0.2-50.7-7.4c-14.2-7.8-25.6-21.9-27.4-38c-1-9.1,0.9-18.1,3.4-27
	c1.6-5.6,3.4-11.1,4.9-16.6c4-14.4,5.4-31.3-4.1-42.8c-3.4-3.9-7.6-7.1-12.2-9.4c-18.1-9.7-45.2-10.8-57.9,5.2h-0.1
	c0.5-1,1.1-1.9,1.7-2.8c8.5-13,23.5-20.2,39.1-22c16.9-1.9,33.8,2.4,49.6,8.6c11,4.3,23.1,11.6,23.8,23.4s-10.4,20.4-18,29.5
	c-9,10.9-13.9,24.5-14,38.7c-0.2,9.9,2.1,19.6,6.6,28.4c9.5,18.2,28.9,30.5,49.2,32.2c0,0,0.1,0,0.1,0
	C540.7,321.2,542.7,321.3,544.7,321.2z"/>
<path class="st5" d="M402.3,182.4c-0.6,0.9-1.1,1.8-1.7,2.8l0,0c0,0-0.1,0-0.1,0l0,0h-0.1c-0.4-0.1-0.7-0.1-1.1-0.1
	c0.1-0.1,0.3-0.3,0.4-0.4l0.3-0.3C400.8,183.7,401.5,183,402.3,182.4z"/>
<path class="st7" d="M437.4,269.1c-3.2,5.6-7.2,10.8-11.9,15.2c-10.7,10.3-14.8,37.5-7.5,48.6c-1-1.3-1.9-2.6-2.6-4.1
	c-1.2-2.3-2.1-4.6-2.8-7.1c-1-3.2-1.6-6.5-2-9.8l0,0c-4.4-16.5-7.2-40.4-4.6-58c0,0,0,0,0-0.1c0.3-2.1,0.7-4.1,1.2-6.1
	c1.9-7.3,4.5-14.4,6.2-21.7s2.7-15,1-22.4c-0.1-0.6-0.3-1.2-0.5-1.8c-0.1-0.3-0.2-0.6-0.3-0.9c-0.2-0.6-0.4-1.1-0.6-1.6
	c-0.1-0.4-0.3-0.7-0.5-1.1c-0.3-0.7-0.7-1.4-1.1-2.1c-0.2-0.3-0.4-0.7-0.6-1s-0.6-0.9-0.9-1.4l0,0c-0.3-0.4-0.6-0.8-0.9-1.2
	c-0.2-0.4-0.5-0.7-0.8-1c-0.1-0.1-0.2-0.3-0.3-0.4c-0.3-0.3-0.5-0.6-0.8-0.9s-0.6-0.6-0.9-0.9l-0.3-0.3c-0.3-0.3-0.6-0.6-1-0.8
	s-0.8-0.6-1.1-0.9l-1.2-0.8c-0.4-0.3-0.8-0.5-1.2-0.7l0,0l-0.6-0.6l0,0c5.4-0.5,11-0.9,16.4-0.1s13.3,3.9,16.8,8.2
	c3.1,3.9,8.9,14.9,9.4,19.9c0.4,3.9,0.9,8,1.2,12.2C445.7,239.3,445.5,254.5,437.4,269.1z"/>
<path class="st5" d="M400.6,185.1h0.1l0,0C400.7,185.1,400.7,185.1,400.6,185.1z"/>
<path class="st12" d="M544.7,321.2c-6.4,2.7-28.3,4.2-35.3,4.2c-8.3,0.1-16.7-0.6-24.9-1.9c-8.4-1.3-16.9-3.5-23.8-8.6
	c-7.4-5.5-12.1-13.9-15.7-22.4c-3.2-7.6-5.8-15.5-7.6-23.5c8.1-14.6,8.3-29.8,7.2-43.7c-0.4-4.2-0.8-8.3-1.2-12.2
	c-0.5-5-6.2-16-9.4-19.9c-3.5-4.3-11.3-7.3-16.8-8.2s-10.9-0.4-16.4,0.1c12.7-16,39.8-14.9,57.9-5.2c4.6,2.3,8.8,5.5,12.2,9.4
	c9.5,11.5,8.1,28.4,4.1,42.8c-1.5,5.5-3.3,11-4.9,16.6c-2.6,8.9-4.5,17.9-3.4,27c1.9,16.1,13.2,30.2,27.4,38
	C507.1,321,528.7,322,544.7,321.2z"/>
<path class="st13" d="M394.2,561c-1.8,0.6-3.4-3.4-6.5-3.2s-6,4.1-6.8,7.9c-1.5,7.2,5.1,11.9,2.9,15.2c-1.5,2.2-5.8,1.8-9.7,1.4
	h-0.2c0,1-0.1,2-0.6,2.9c-1,2.3-3.4,3.6-5.6,4.8c-3.2,1.8-6.7,3.6-10.4,3.2c-5.3-0.5-9.1-5.7-10-10.9c-0.3-2-0.4-4.1-0.1-6.1
	c-4.2-0.1-8.5,0.7-11.7,3.2c-0.9,0.7-1.7,1.6-2.2,2.6c0.1,0.7,0.3,1.3,0.5,2c0.9,4.3,1.3,8.9-0.5,12.9c-2.8,6.4-10.9,9.5-17.7,7.7
	c-6.6-1.8-11.6-7.5-13.9-13.9c-6.3-1.5-10.5-3.1-12-1.1c-1.4,1.8,0.8,4.8-0.7,6.1c-0.8,0.5-1.9,0.6-2.8,0.3
	c-0.8-0.2-1.7-0.5-2.4-0.9l0,0c-0.9-0.4-1.8-0.8-2.7-1.2l-1.1-0.5c-1-0.5-2.1-0.9-3.1-1.3c-1.6-0.6-3.2-1.2-4.8-1.7
	c1.5,2.4,3.6,4.7,4.4,7.3c0.3,0.9,0.4,1.8,0.4,2.7c-0.1,0.9-0.3,1.8-0.8,2.6c-1.7,2.6-4.5,4.2-7.6,4.4c-2.5,0.1-5.1-0.4-7.4-1.3
	c-1.3-0.5-2.6-1.1-4-1.6c-2.1-0.8-4-1.9-5.7-3.3c0,0-0.1,0-0.1-0.1c-1.7-1.5-2.6-3.7-2.4-6c0.4-2.3,2.4-4,4-5.9
	c1.1-1.3,2.1-2.8,2.7-4.5c-4-1.3-8.3-1.9-12.5-1.9c-2.6,0-5.2,0.4-7.7,1.2c0.2,0.6,0.4,1.1,0.6,1.7c1.3,3.6,2,7.8,0.2,11.2
	c-2.6,4.9-9.2,6-14.8,5.8c-4.8-0.2-9.9-0.9-13.7-3.9c-5-4-6.2-11.1-5-17.5c-0.5-0.3-1-0.6-1.5-1c-2.2-1.6-4.8-2.6-7.6-2.9
	c-3-0.2-6.1,0.5-6.7,1.5c0.5,0.6,1,1.1,1.4,1.7c0.9,1.1,1.5,2.4,1.7,3.8c0.1,1.4-0.2,2.9-1,4.1c-0.6,1-1.4,1.8-2.3,2.5
	c-2.2,1.4-4.6,2.3-7.2,2.6c-5.7,1-11.8,1-17.2-1.3s-9.9-7.1-10.7-12.8c-0.3-1.9-0.2-3.9,0.3-5.8c-1.2-1.1-2.6-2-4.2-2.3
	c-6.4-1.8-11.2,2-14.1-0.7c-2.7-2.6-1-8.4-0.4-10.5c4.4-14.3,17.8-22.3,34.6-35c20.1-15.2,15.9-15.2,27-22.4
	c8.5-5.4,17.6-9.8,27.2-12.9c9-3,18.3-5.1,27.7-6.2h0.3c5,1.4,10.1,2.2,15.2,2.4c2.2,0.1,4.4,0,6.6-0.2h0.5
	c6.3-0.6,12.5-2.2,18.3-4.8c0.3-0.1,0.6-0.2,0.8-0.4c8.1,2.1,16.1,4.8,23.8,8.1c5.9,2.6,11.5,5.5,17,8.8l0,0
	c0.2,0.1,0.4,0.2,0.6,0.4c1.9,1.1,3.5,2.2,4.9,3.2c0,0,0,0,0.1,0c12.7,8.7,11.7,12.8,30,24.2c4.2,2.6,8.1,4.8,11.6,6.9
	c3.7,2,7.2,4.4,10.4,7.2c2.9,2.4,4.9,5.7,5.8,9.4C397.2,553.7,396.4,560.3,394.2,561z"/>
<path class="st13" d="M187,578.7c-1.5-1.4-2.7-3.2-3.5-5.1c-1.2-3.9,1.2-7.9,3.6-11.3l12.1-17.5"/>
<path class="st13" d="M152.1,573.4c1.2-5,4.7-9.7,8.2-13.6c7.4-8.2,15.9-15.4,25.2-21.4"/>
<path class="st13" d="M245.6,541.4c1.4,12-13.4,21-12.8,33.1c0.2,3.2,1.5,6.2,2.6,9.3"/>
<path class="st13" d="M219.4,536.2c2.3,7.2-0.5,15.1-4.3,21.7s-8.8,12.5-11.2,19.7c-0.4,1.1-0.8,2.3-1,3.5"/>
<path class="st13" d="M272,590.3c-0.4-0.6-0.8-1.3-1.1-2c-1.9-4.3-1-9.4,0-14l7-32.8"/>
<path class="st13" d="M254.1,566.6c3.5,5.3,4.1,12.1,1.6,18"/>
<path class="st13" d="M317.4,541.1c2.9,6.9,5.8,13.8,8.6,20.6c2.8,6.6,5.5,13.3,7.2,20.2"/>
<path class="st13" d="M301.5,569.3c-1.7,6.8-2.2,14.1-0.1,20.7c0.1,0.2,0.1,0.3,0.2,0.5"/>
<path class="st13" d="M355.2,547l15.8,27.5c1.4,2.4,2.8,5.1,2.8,7.7"/>
<path class="st13" d="M349.2,566.6c-0.9,3.1-1.6,6.3-2.1,9.5"/>
<polygon class="st14" points="71.8,249.2 63.5,247 56.9,252.7 56.4,244.1 49,239.7 57,236.5 58.9,228 64.4,234.7 73.1,233.9 
	68.4,241.2 "/>
<polygon class="st14" points="149.9,219.5 143.1,214.2 134.9,216.9 137.8,208.7 132.7,201.7 141.4,202 146.5,195 148.9,203.3 
	157.1,206 150,210.9 "/>
<polygon class="st14" points="6.3,310 7.5,301.5 1.1,295.6 9.6,294.1 13.1,286.2 17.2,293.8 25.8,294.8 19.9,301 21.6,309.5 
	13.8,305.7 "/>
<polygon class="st15" points="53.4,279.5 49.3,277.8 45.6,280.2 45.9,275.8 42.5,273.1 46.8,272 48.3,267.9 50.7,271.6 55.1,271.8 
	52.2,275.2 "/>
<polygon class="st15" points="121.5,260.1 117.9,257.5 113.7,259 115,254.8 112.3,251.3 116.7,251.3 119.2,247.6 120.6,251.8 
	124.9,253.1 121.3,255.7 "/>
<polygon class="st15" points="40.4,218.8 36.8,216.3 32.7,217.8 34,213.6 31.3,210.1 35.7,210 38.2,206.4 39.6,210.6 43.8,211.8 
	40.2,214.4 "/>
<path class="st6" d="M261.7,711.4c0,0-0.1,0-0.1,0"/>
<line class="st6" x1="267.9" y1="712.9" x2="267.9" y2="712.9"/>
<path class="st16" d="M281.2,417.3h-20.1c0.3-2,0.6-4.5,0.9-7.3h18.7C280.9,411.7,281.1,414.4,281.2,417.3z"/>
<path class="st16" d="M282.2,431.5h-23.7c0.3-1.4,0.6-3.5,1.1-6.2c0.1-0.4,0.1-0.8,0.2-1.1h21.7c0,0.4,0.1,0.8,0.1,1.2l0,0
	c0.1,0.9,0.1,1.7,0.2,2.5c0,0.1,0,0.2,0,0.2c0.1,1,0.2,2,0.3,3C282.2,431.3,282.2,431.4,282.2,431.5z"/>
<path class="st16" d="M284.6,446.3h-28.5c0.4-2.5,0.8-4.9,1.2-7.4h26c0.2,1,0.3,2.1,0.5,3.1c0.1,0.6,0.2,1.2,0.3,1.8
	C284.3,444.6,284.4,445.4,284.6,446.3z"/>
<path class="st16" d="M286.9,458c0.2,1.2,0.5,2.5,0.7,3.9h-34l0.6-3.9c-1.6-0.1-3.2-0.1-4.9,0.1c0-0.1,0.1-0.2,0.1-0.3
	c1.7-0.2,3.4-0.6,5-1.2c0.1-0.7,0.2-1.4,0.4-2.1h31.5c0.1,0.8,0.3,1.7,0.5,2.6c1.4,0.4,2.8,0.6,4.3,0.7c0,0.2,0,0.4,0.1,0.6
	C289.7,458.2,288.3,458.1,286.9,458z"/>
<path class="st16" d="M290.3,477.1h-39.2c0.4-2.4,0.8-4.9,1.2-7.3H289C289.4,472.1,289.8,474.6,290.3,477.1z"/>
<circle class="st17" cx="212.5" cy="510.5" r="6.5"/>
<circle class="st17" cx="260.4" cy="504.1" r="6.5"/>
<circle class="st17" cx="295.1" cy="529.7" r="6.5"/>
<circle class="st17" cx="309.1" cy="497.6" r="6.5"/>
<circle class="st17" cx="288.6" cy="573.4" r="6.5"/>
<circle class="st17" cx="225.5" cy="582.7" r="6.5"/>
<circle class="st17" cx="168.9" cy="536.2" r="6.5"/>
<ellipse transform="matrix(7.088915e-02 -0.9975 0.9975 7.088915e-02 -301.8825 762.882)" class="st17" cx="258.6" cy="543.5" rx="6.5" ry="6.5"/>
<circle class="st17" cx="338.3" cy="538.3" r="6.5"/>
<path class="st1" d="M267.2,712.6c-0.1,0.4-0.5,0.7-0.6,1.1c-1.2-1.1-2.1-0.9-3.5-1c-0.3,0-0.7,0.1-0.9,0.3c0.1-0.5,0.2-1,0.3-1.4
	c0.3-0.1,0.7-0.2,1-0.2C264.9,711.3,266.2,711.8,267.2,712.6z"/>
<path class="st1" d="M283.4,709.9c0.1,0.5,0.2,1,0.3,1.4c-1.6-0.5-2.3,0.1-3.6,0.6c-0.4,0.1-0.5,0.3-0.7,0.7
	c-0.1-0.5-0.3-0.9-0.4-1.4c0.2-0.3,0.5-0.5,0.8-0.7C280.9,709.9,282.2,709.7,283.4,709.9z"/>
<path class="st17" d="M390.3,539.3c-1.3,3.4-5.1,5-8.4,3.7c-3.4-1.3-5-5.1-3.7-8.4c0.4-1,1-1.8,1.7-2.5
	C383.5,534.1,387,536.6,390.3,539.3z"/>
<path class="st17" d="M213.4,560.4c-3.5-0.8-5.7-4.3-4.9-7.8c0.6-2.6,2.7-4.6,5.4-5c1.8-0.3,3.7,0.3,5.1,1.5
	C217.5,553,215.7,556.8,213.4,560.4z"/>
</svg>
